<svg version="1.1" viewBox="0.0 0.0 306.4251968503937 713.6482939632546" fill="none" stroke="none" stroke-linecap="square" stroke-miterlimit="10" xmlns:xlink="http://www.w3.org/1999/xlink" xmlns="http://www.w3.org/2000/svg"><clipPath id="p.0"><path d="m0 0l306.4252 0l0 713.6483l-306.4252 0l0 -713.6483z" clip-rule="nonzero"/></clipPath><g clip-path="url(#p.0)"><path fill="#000000" fill-opacity="0.0" d="m0 0l306.4252 0l0 713.6483l-306.4252 0z" fill-rule="evenodd"/><path fill="#f3f3f3" d="m288.28345 0.06299344l8.314972 5.4488187l-287.43307 438.2047l-8.3149605 -5.4487915z" fill-rule="evenodd"/><path stroke="#000000" stroke-width="1.0" stroke-linejoin="round" stroke-linecap="butt" d="m288.28345 0.06299344l8.314972 5.4488187l-287.43307 438.2047l-8.3149605 -5.4487915z" fill-rule="evenodd"/><path fill="#d9d9d9" d="m296.28345 40.062992l8.314972 5.448822l-287.43307 438.2047l-8.314961 -5.4487915z" fill-rule="evenodd"/><path stroke="#000000" stroke-width="1.0" stroke-linejoin="round" stroke-linecap="butt" d="m296.28345 40.062992l8.314972 5.448822l-287.43307 438.2047l-8.314961 -5.4487915z" fill-rule="evenodd"/><path fill="#cccccc" d="m296.28345 88.062996l8.314972 5.4488144l-287.43307 438.20474l-8.314961 -5.4488525z" fill-rule="evenodd"/><path stroke="#000000" stroke-width="1.0" stroke-linejoin="round" stroke-linecap="butt" d="m296.28345 88.062996l8.314972 5.4488144l-287.43307 438.20474l-8.314961 -5.4488525z" fill-rule="evenodd"/><path fill="#e69138" d="m296.28345 136.06299l8.314972 5.448822l-287.43307 438.20474l-8.314961 -5.4488525z" fill-rule="evenodd"/><path stroke="#000000" stroke-width="1.0" stroke-linejoin="round" stroke-linecap="butt" d="m296.28345 136.06299l8.314972 5.448822l-287.43307 438.20474l-8.314961 -5.4488525z" fill-rule="evenodd"/><path fill="#d9d9d9" d="m151.74852 107.52229l9.952759 0l0 524.063l-9.952759 0z" fill-rule="evenodd"/><path stroke="#000000" stroke-width="1.0" stroke-linejoin="round" stroke-linecap="butt" d="m151.74852 107.52229l9.952759 0l0 524.063l-9.952759 0z" fill-rule="evenodd"/><path fill="#b7b7b7" d="m111.74853 147.5223l9.952751 0l0 524.063l-9.952751 0z" fill-rule="evenodd"/><path stroke="#000000" stroke-width="1.0" stroke-linejoin="round" stroke-linecap="butt" d="m111.74853 147.5223l9.952751 0l0 524.063l-9.952751 0z" fill-rule="evenodd"/><path fill="#666666" d="m71.74853 187.5223l9.952751 0l0 524.063l-9.952751 0z" fill-rule="evenodd"/><path stroke="#000000" stroke-width="1.0" stroke-linejoin="round" stroke-linecap="butt" d="m71.74853 187.5223l9.952751 0l0 524.063l-9.952751 0z" fill-rule="evenodd"/></g></svg>