<?xml version="1.0" encoding="UTF-8" standalone="no"?>
<svg
   version="1.0"
   width="373.27979pt"
   height="930.16602pt"
   viewBox="0 0 373.27979 930.16601"
   preserveAspectRatio="xMidYMid"
   id="svg11"
   sodipodi:docname="Gemini_Generated_Image_lprko7lprko7lprk.svg"
   xmlns:inkscape="http://www.inkscape.org/namespaces/inkscape"
   xmlns:sodipodi="http://sodipodi.sourceforge.net/DTD/sodipodi-0.dtd"
   xmlns="http://www.w3.org/2000/svg"
   xmlns:svg="http://www.w3.org/2000/svg">
  <defs
     id="defs11" />
  <sodipodi:namedview
     id="namedview11"
     pagecolor="#ffffff"
     bordercolor="#000000"
     borderopacity="0.25"
     inkscape:showpageshadow="2"
     inkscape:pageopacity="0.0"
     inkscape:pagecheckerboard="false"
     inkscape:deskcolor="#d1d1d1"
     inkscape:document-units="pt"
     showborder="true" />
  <g
     transform="matrix(0.1,0,0,-0.1,-828.57561,1486.3)"
     fill="#000000"
     stroke="none"
     id="g11">
    <path
       d="m 9143,14798 c 34,-50 56,-102 92,-214 26,-82 62,-180 80,-219 99,-216 275,-339 520,-362 l 79,-8 38,-54 c 37,-53 38,-57 38,-143 0,-48 -2,-88 -4,-88 -2,0 -32,13 -67,29 -115,52 -229,75 -369,75 -145,-1 -224,-17 -337,-69 -207,-96 -371,-277 -452,-501 -49,-135 -65,-239 -65,-414 1,-177 19,-285 83,-481 l 38,-116 -26,-16 c -40,-24 -210,-204 -264,-279 -278,-393 -319,-908 -106,-1343 106,-218 245,-382 465,-547 52,-39 94,-71 94,-72 0,0 -30,-32 -66,-71 -181,-192 -259,-374 -258,-605 0,-147 17,-226 73,-345 100,-215 255,-369 491,-489 263,-134 463,-177 835,-181 239,-3 241,-3 327,-33 147,-52 263,-118 344,-196 55,-54 75,-81 84,-113 16,-64 -1,-115 -59,-173 -76,-76 -156,-99 -424,-120 -300,-23 -459,-77 -592,-201 -112,-106 -162,-227 -152,-369 13,-190 135,-346 352,-450 104,-50 225,-81 463,-120 297,-48 421,-95 541,-206 75,-70 113,-132 137,-224 33,-131 -27,-304 -157,-445 -67,-73 -37,-97 61,-48 163,81 283,311 265,508 -14,156 -64,263 -175,375 -143,145 -289,212 -610,280 -238,50 -287,64 -368,103 -194,94 -244,240 -123,358 65,63 121,77 351,89 247,13 338,25 445,61 113,38 180,76 257,148 126,116 183,242 182,406 -1,178 -60,304 -209,451 l -83,81 66,32 c 437,215 675,499 722,861 35,273 -54,525 -267,751 l -64,68 128,128 c 153,153 239,271 331,453 207,411 248,900 110,1305 -71,209 -167,371 -306,516 l -90,95 5,159 c 4,123 2,182 -11,254 -69,393 -296,657 -652,757 -38,11 -112,18 -209,21 -126,4 -167,1 -255,-17 -87,-17 -244,-64 -322,-95 -16,-7 -18,1 -18,86 0,277 74,468 246,642 71,72 77,80 68,105 -5,14 -28,39 -51,56 -50,35 -49,35 -129,-70 -110,-147 -158,-262 -200,-478 -17,-88 -18,-89 -35,-67 -16,19 -18,35 -12,115 12,188 -46,336 -186,477 -87,86 -171,142 -272,180 -87,34 -241,69 -327,76 l -84,6 z m 459,-273 -10,-30 -1,38 c -1,21 -8,54 -16,74 -25,59 -17,62 11,3 21,-45 24,-61 16,-85 z m -102,0 c 67,-59 90,-71 91,-48 1,15 2,15 6,-2 5,-18 95,-146 145,-205 48,-56 100,-130 102,-143 1,-8 8,-23 16,-33 14,-18 14,-18 -4,-4 -10,8 -36,39 -58,67 -45,61 -112,104 -211,134 -38,11 -67,23 -64,25 2,3 46,-9 98,-25 51,-17 95,-28 97,-26 6,5 -95,129 -135,167 -15,14 -49,38 -75,51 -27,14 -42,27 -35,30 8,3 4,13 -12,31 -38,41 -17,31 39,-19 z m 308,-162 c 4,-62 5,-113 1,-113 -11,0 -19,72 -18,165 2,111 7,94 17,-52 z m 442,123 c 0,-3 -4,-8 -10,-11 -5,-3 -10,-1 -10,4 0,6 5,11 10,11 6,0 10,-2 10,-4 z m -98,-128 c -7,-7 -12,-8 -12,-2 0,14 12,26 19,19 2,-3 -1,-11 -7,-17 z m 388,-663 c 19,-23 8,-26 -19,-4 -16,13 -18,19 -8,19 8,0 20,-7 27,-15 z m 155,5 c 3,-5 1,-10 -4,-10 -6,0 -11,5 -11,10 0,6 2,10 4,10 3,0 8,-4 11,-10 z m -420,-20 c -3,-5 -12,-7 -20,-3 -21,7 -19,13 6,13 11,0 18,-4 14,-10 z m 425,-18 c 22,-18 22,-18 -19,-14 -40,4 -53,15 -28,25 20,9 24,8 47,-11 z m 94,-10 c 3,-5 -8,-6 -25,-4 -16,2 -29,6 -29,8 0,8 49,4 54,-4 z m -158,-13 c 3,-6 2,-14 -4,-18 -7,-4 -8,-12 -2,-21 14,-21 12,-30 -5,-30 -23,0 -41,46 -25,65 15,18 26,19 36,4 z m 119,-19 c 3,-5 -1,-10 -9,-10 -9,0 -16,5 -16,10 0,6 4,10 9,10 6,0 13,-4 16,-10 z m -1258,-28 c -15,-2 -27,-7 -27,-12 0,-5 7,-7 15,-4 20,8 19,-5 -2,-28 -24,-26 -8,-34 31,-15 19,8 43,13 55,10 l 21,-5 -21,-26 c -12,-16 -16,-28 -10,-30 6,-2 9,-8 5,-13 -10,-17 8,-9 38,16 34,29 59,34 35,7 -30,-33 -30,-32 81,-33 58,0 61,-1 52,-19 -14,-26 -4,-29 65,-18 49,8 132,12 168,9 4,-1 3,-10 -3,-20 -9,-17 -7,-19 12,-16 12,3 25,10 30,17 6,10 11,9 22,-5 13,-17 14,-16 19,3 6,22 37,18 37,-5 0,-9 10,-12 29,-10 31,4 55,-15 64,-50 4,-19 5,-18 6,2 0,12 -5,28 -11,35 -7,7 -14,18 -15,23 -1,6 -5,18 -8,28 -5,13 -2,17 13,17 11,0 37,15 56,34 39,36 83,51 104,34 6,-6 12,-7 12,-3 0,5 9,0 20,-10 11,-10 17,-21 15,-25 -3,-4 7,-11 20,-14 33,-8 23,-26 -15,-26 -41,0 -60,10 -60,31 0,11 -7,19 -16,19 -10,0 -14,-6 -11,-14 4,-10 0,-12 -14,-9 -11,3 -19,0 -19,-6 0,-7 -4,-9 -10,-6 -19,12 -10,-52 10,-70 25,-23 25,-35 1,-35 -21,0 -51,-39 -51,-66 0,-16 -1,-16 -18,-1 -10,10 -24,17 -30,17 -16,0 -14,-40 3,-70 19,-33 19,-50 0,-50 -8,0 -15,-8 -15,-17 -1,-16 -2,-15 -12,2 -6,11 -22,31 -35,45 -19,19 -28,22 -41,13 -20,-12 -25,-64 -11,-101 8,-20 6,-29 -6,-41 -15,-15 -17,-14 -31,3 -8,11 -14,30 -14,42 0,20 -17,34 -40,34 -4,0 -6,-9 -3,-20 3,-11 1,-20 -5,-20 -6,0 -13,-13 -17,-30 -4,-16 -13,-30 -21,-30 -21,0 -34,-61 -17,-85 15,-23 17,-81 3,-90 -6,-4 -10,5 -10,20 0,14 -4,23 -10,20 -5,-3 -11,4 -14,17 -2,13 -10,51 -17,86 -9,48 -16,62 -29,62 -19,0 -40,-45 -40,-86 0,-13 -5,-26 -11,-29 -5,-4 -14,-18 -20,-32 -7,-19 -14,-23 -32,-17 -28,8 -27,7 -32,34 -6,31 -14,37 -25,20 -7,-12 -12,-12 -22,-2 -10,10 -15,3 -28,-37 -8,-27 -18,-49 -22,-50 -37,-5 -41,-1 -35,39 4,29 1,45 -10,56 -18,18 -40,4 -45,-28 -2,-13 -12,-22 -25,-24 -20,-3 -23,1 -23,26 0,22 -4,28 -15,24 -8,-4 -15,-15 -15,-25 0,-10 -6,-19 -14,-19 -16,0 -10,51 8,62 8,5 7,8 -1,8 -8,0 -13,15 -13,40 0,55 -27,43 -36,-16 -3,-24 -10,-44 -14,-44 -4,0 -13,-14 -20,-30 -11,-27 -36,-50 -54,-50 -13,0 -5,28 13,44 11,10 22,28 25,42 4,13 11,24 16,24 19,0 10,29 -11,35 -17,6 -20,12 -14,33 3,15 6,35 6,44 0,10 4,20 10,23 5,4 9,10 9,14 0,15 -99,-41 -105,-60 -8,-24 -17,-24 -31,-1 -9,14 -7,31 12,77 13,32 22,60 20,62 -2,3 -14,0 -25,-7 -19,-10 -61,0 -61,15 0,12 24,55 31,55 5,0 15,15 23,34 8,18 19,37 25,40 6,4 11,16 11,27 0,19 26,62 64,107 12,14 15,22 7,22 -7,0 -9,5 -5,11 5,8 8,8 13,0 5,-8 17,-6 40,6 102,56 116,61 130,49 12,-9 9,-12 -12,-14 z m 1246,9 c 4,-1 7,-5 7,-10 0,-4 -11,-6 -25,-3 -14,2 -25,8 -25,12 0,5 8,7 18,5 9,-2 20,-4 25,-4 z m 131,-46 c 9,-14 14,-25 11,-25 -14,0 -43,21 -49,35 -9,25 20,17 38,-10 z m -332,-4 c 14,-17 15,-20 1,-25 -27,-11 -38,-6 -50,19 -10,23 -9,25 11,25 12,0 29,-9 38,-19 z m -87,-31 c 3,-5 2,-10 -4,-10 -5,0 -13,5 -16,10 -3,6 -2,10 4,10 5,0 13,-4 16,-10 z m 61,-35 c 14,-11 15,-14 4,-14 -8,0 -24,6 -34,14 -15,11 -16,15 -5,15 8,0 24,-7 35,-15 z m -722,-1 c 22,-9 10,-23 -14,-17 -11,3 -17,9 -14,14 6,11 8,11 28,3 z m 897,-46 c 48,2 44,-10 -10,-28 -52,-17 -71,-9 -71,31 0,32 0,32 20,14 13,-12 34,-18 61,-17 z m -1431,14 c 0,-13 -12,-22 -22,-16 -10,6 -1,24 13,24 5,0 9,-4 9,-8 z m 1284,-24 c 8,-33 -8,-37 -25,-7 -9,17 -8,23 2,30 16,9 15,11 23,-23 z m 280,-40 c 9,-36 7,-48 -8,-48 -7,0 -18,-6 -24,-13 -9,-10 -6,-17 8,-30 19,-16 27,-37 14,-37 -11,0 -49,23 -56,34 -11,16 -10,28 2,21 6,-3 10,-1 10,4 0,6 -6,11 -14,11 -16,0 -66,38 -66,51 0,5 12,9 28,9 15,0 34,5 42,10 27,17 57,11 64,-12 z m 82,-48 c 8,0 14,-5 14,-10 0,-12 -48,-3 -67,13 -7,5 -13,16 -13,24 0,11 6,10 26,-6 15,-12 33,-21 40,-21 z m -464,13 c 19,-17 25,-53 9,-53 -19,0 -64,47 -57,58 10,17 26,15 48,-5 z m 258,-35 c 12,-8 18,-19 15,-29 -4,-11 4,-25 21,-38 25,-20 25,-21 5,-21 -11,0 -21,-4 -21,-9 0,-12 72,-21 84,-10 5,4 18,1 30,-6 31,-20 50,-5 43,33 -6,30 -5,31 31,34 32,3 46,-4 105,-52 65,-53 68,-56 65,-94 -2,-22 -8,-41 -15,-43 -11,-4 -15,5 -27,57 -3,16 -22,35 -51,53 -25,15 -48,27 -50,27 -16,0 0,-44 29,-79 41,-49 53,-80 36,-91 -8,-5 -10,-17 -7,-31 5,-18 0,-15 -24,14 -17,21 -39,37 -51,37 -19,0 -20,-4 -14,-47 5,-40 13,-54 48,-85 32,-27 49,-35 66,-31 12,3 29,0 37,-7 8,-7 15,-9 16,-4 2,27 28,-68 28,-105 l 1,-45 -29,28 c -23,22 -30,24 -34,12 -9,-23 10,-75 35,-96 23,-19 56,-18 70,4 12,18 38,-60 42,-124 2,-33 2,-60 1,-60 -2,0 -18,23 -35,51 -28,47 -33,50 -47,36 -10,-9 -12,-20 -7,-29 5,-7 9,-17 9,-23 0,-5 6,-10 14,-10 8,0 16,-6 19,-14 4,-11 -2,-13 -26,-8 -36,7 -53,-9 -58,-56 -12,-102 -47,-81 -57,34 -6,69 -30,119 -57,119 -10,0 -43,13 -73,30 -30,16 -56,28 -58,26 -2,-3 -28,30 -57,72 -28,43 -75,106 -102,142 -28,35 -50,69 -50,76 0,6 -3,26 -6,43 -6,28 -4,31 17,32 h 24 l -22,9 c -14,6 -23,18 -23,31 0,30 -28,59 -57,59 -27,0 -29,-16 -8,-47 8,-12 12,-24 7,-27 -13,-8 -99,51 -124,85 -13,17 -34,35 -47,40 -15,6 -21,14 -17,25 3,9 6,23 6,32 1,9 7,2 15,-15 8,-18 20,-33 28,-33 8,0 20,-6 27,-14 6,-8 18,-12 25,-9 12,4 12,10 -1,35 -9,16 -13,32 -10,35 11,12 38,-8 47,-37 12,-33 11,-32 33,-24 18,7 22,34 5,34 -6,0 -8,8 -5,18 4,12 -1,26 -14,37 -26,23 -25,31 2,38 32,9 45,-7 59,-70 13,-57 49,-102 119,-146 l 28,-18 -8,34 c -4,19 -11,40 -15,47 -4,6 -2,23 6,36 15,30 7,39 -19,23 -28,-17 -46,-1 -66,58 -25,72 -23,77 29,70 24,-4 54,-12 65,-19 z m -1380,-182 c 0,-3 -4,-8 -10,-11 -5,-3 -10,-1 -10,4 0,6 5,11 10,11 6,0 10,-2 10,-4 z m 1040,-22 c 6,-14 10,-36 10,-49 0,-21 -2,-22 -25,-12 -27,12 -41,46 -31,72 9,24 36,18 46,-11 z m -1180,-8 c 0,-8 -4,-18 -10,-21 -5,-3 -10,3 -10,14 0,12 5,21 10,21 6,0 10,-6 10,-14 z m 1934,-77 c 3,-17 6,-46 6,-65 0,-44 15,-81 49,-119 30,-35 57,-124 46,-153 -6,-15 -8,-14 -21,8 -7,14 -21,48 -29,75 -8,28 -32,74 -54,102 -21,28 -47,69 -59,91 l -21,41 20,25 c 28,36 55,34 63,-5 z m -617,5 c 23,-4 63,-68 63,-99 0,-14 -4,-14 -34,-1 -45,19 -136,87 -136,102 0,12 46,11 107,-2 z m -1217,-18 c 0,-8 -4,-17 -9,-20 -10,-7 -23,19 -14,28 11,11 23,6 23,-8 z m 580,-110 c 0,-28 -5,-46 -14,-49 -19,-8 -26,1 -26,34 0,38 9,59 26,59 10,0 14,-13 14,-44 z m 506,22 19,-21 -27,18 c -29,18 -34,25 -20,25 5,0 17,-10 28,-22 z m 78,-29 c -4,-8 0,-9 15,-4 12,4 21,2 21,-4 0,-13 -47,-15 -54,-2 -4,5 0,12 6,14 19,8 20,8 12,-4 z m -774,-34 c 0,-29 -10,-55 -20,-55 -15,0 -22,60 -10,75 16,19 30,10 30,-20 z m 777,-12 c 16,4 42,9 59,13 39,7 90,-17 106,-51 6,-14 17,-25 25,-25 7,0 19,-12 26,-27 6,-16 22,-43 34,-62 13,-19 23,-42 23,-53 0,-11 4,-17 9,-14 9,6 71,-85 71,-104 0,-18 -19,-10 -25,10 -11,34 -55,79 -71,73 -21,-8 -63,34 -86,85 -17,37 -22,41 -35,31 -12,-11 -18,-9 -35,11 -15,19 -18,21 -14,6 4,-11 -16,2 -46,32 -29,28 -62,59 -73,69 -12,10 -15,14 -8,9 7,-4 25,-6 40,-3 z m -906,-29 c -5,-16 -10,-21 -10,-12 -1,18 10,51 15,45 2,-1 -1,-16 -5,-33 z m 1666,4 c -3,-8 -6,-5 -6,6 -1,11 2,17 5,13 3,-3 4,-12 1,-19 z m -1401,-86 c 13,-13 20,-62 8,-62 -9,0 -34,69 -33,92 1,20 2,20 6,4 3,-11 11,-26 19,-34 z m 264,3 c 0,-19 -4,-35 -8,-35 -4,0 -9,16 -10,35 -2,19 2,35 8,35 5,0 10,-16 10,-35 z m -143,-27 c -3,-8 -6,-5 -6,6 -1,11 2,17 5,13 3,-3 4,-12 1,-19 z m -537,-7 c -1,-17 -20,-32 -37,-29 -17,2 -19,7 -12,25 6,15 14,20 28,16 12,-3 21,-8 21,-12 z m 1265,-137 c -2,-7 14,-15 41,-19 37,-5 50,-13 74,-47 24,-33 30,-51 30,-92 l -1,-51 -16,30 c -16,30 -62,72 -75,68 -10,-4 -69,97 -63,107 3,4 -1,10 -8,13 -6,2 -23,24 -36,48 l -23,44 40,-45 c 23,-25 39,-50 37,-56 z m -852,-24 c -7,-25 -19,-34 -28,-20 -8,13 13,52 25,45 4,-3 6,-14 3,-25 z m 912,20 c 3,-5 1,-10 -4,-10 -6,0 -11,5 -11,10 0,6 2,10 4,10 3,0 8,-4 11,-10 z m 230,-52 c 25,-87 21,-93 -37,-53 -32,22 -66,63 -56,68 2,1 17,9 33,19 17,9 33,17 37,17 4,1 14,-22 23,-51 z m 204,-134 c 1,-24 7,-47 16,-54 17,-14 17,-14 34,15 9,16 11,7 8,-50 -2,-38 -7,-79 -12,-90 -6,-15 -1,-13 23,9 18,16 35,26 39,22 11,-11 -114,-126 -137,-126 -10,0 -22,-4 -25,-10 -6,-10 -45,-14 -45,-5 0,3 7,16 15,28 13,21 12,27 -18,76 -36,60 -96,132 -77,93 6,-13 10,-31 8,-40 -2,-10 -11,5 -21,33 -10,28 -27,69 -38,93 -31,64 -18,70 31,15 25,-27 57,-57 71,-66 26,-17 27,-17 37,10 6,15 13,44 16,63 4,24 15,41 34,52 26,16 27,16 34,-5 3,-12 6,-41 7,-63 z m -408,43 c 12,-22 12,-22 -10,-3 -11,11 -21,23 -21,28 0,14 19,-1 31,-25 z m 129,-97 c 0,-9 25,-41 55,-71 59,-58 85,-113 58,-123 -20,-8 -32,3 -89,80 -26,35 -49,64 -51,64 -1,0 -3,-9 -3,-20 0,-12 21,-44 48,-72 l 47,-51 -42,22 c -43,21 -91,90 -78,112 4,5 1,25 -5,43 -8,27 -8,39 2,55 l 12,20 23,-21 c 13,-12 23,-29 23,-38 z m 754,14 c 20,-8 21,-28 2,-43 -17,-14 -41,11 -32,34 6,17 8,17 30,9 z m 116,-76 c 21,-34 23,-69 5,-75 -15,-5 -45,50 -45,81 0,35 16,33 40,-6 z m -135,-93 c 0,-22 -14,-28 -34,-16 -12,8 -13,12 -1,26 16,20 35,14 35,-10 z m 100,-31 c 23,-25 24,-27 7,-49 -30,-40 -76,-10 -66,44 8,38 27,40 59,5 z m 110,-60 c 14,-6 14,-8 1,-23 -8,-9 -16,-36 -18,-60 -3,-50 -19,-62 -36,-29 -13,26 -24,97 -16,110 6,9 46,11 69,2 z m -150,-88 c 22,-32 25,-45 18,-73 l -8,-35 -26,24 c -30,28 -49,60 -49,82 0,14 29,50 36,44 1,-2 15,-21 29,-42 z m -296,-156 c 45,-116 55,-183 48,-338 -12,-294 -122,-530 -348,-747 -287,-275 -722,-420 -1179,-394 -173,10 -385,78 -551,175 -109,64 -261,213 -318,311 -150,255 -131,516 53,751 31,39 61,72 65,72 5,0 44,-41 87,-91 117,-136 261,-251 391,-312 103,-48 196,-50 344,-6 148,44 243,45 372,5 49,-15 110,-30 136,-33 93,-11 239,46 375,145 l 69,51 39,-20 c 52,-27 71,-19 25,10 -20,12 -37,27 -37,31 0,5 21,33 47,62 97,110 196,251 287,412 l 28,48 19,-28 c 11,-16 32,-63 48,-104 z m 392,91 c 19,-19 29,-40 29,-59 0,-21 5,-29 16,-28 22,2 57,-46 48,-67 -10,-26 -32,-20 -55,16 l -21,32 5,-55 c 4,-53 -7,-100 -25,-100 -4,0 -8,11 -8,25 0,15 -6,25 -15,25 -10,0 -13,8 -10,28 12,79 14,107 6,116 -5,6 -11,30 -15,54 -8,51 4,54 45,13 z m -3026,-32 c -6,-9 -35,-1 -35,10 0,4 3,11 7,14 8,9 34,-13 28,-24 z m 3161,-13 c 9,-39 -6,-54 -23,-22 -14,26 -11,46 7,46 5,0 12,-11 16,-24 z m -290,-52 c -7,-19 -32,-18 -40,2 -4,10 2,25 16,38 l 23,21 3,-23 c 2,-13 1,-30 -2,-38 z m -2992,0 c 19,-7 19,-14 6,-49 -9,-23 -12,-25 -25,-11 -16,15 -20,48 -8,59 8,8 8,8 27,1 z m 3060,-68 c -10,-40 -32,-53 -49,-30 -20,27 -18,47 7,79 l 21,27 14,-26 c 7,-14 11,-37 7,-50 z m -2939,35 c 3,-5 1,-12 -5,-16 -5,-3 -10,1 -10,9 0,18 6,21 15,7 z m -95,-51 c 0,-5 -4,-10 -10,-10 -5,0 -10,5 -10,10 0,6 5,10 10,10 6,0 10,-4 10,-10 z m 3086,-51 c 15,-30 19,-89 6,-89 -4,0 -18,7 -30,16 -12,8 -22,14 -22,12 0,-2 4,-18 10,-37 6,-23 5,-83 -6,-192 -11,-115 -12,-164 -4,-179 8,-16 4,-32 -21,-82 -24,-47 -29,-66 -21,-79 8,-13 5,-25 -14,-53 -14,-20 -29,-36 -34,-36 -6,0 -10,-6 -10,-14 0,-20 -27,-39 -60,-41 -52,-4 -63,-21 -58,-91 3,-56 2,-63 -17,-68 -30,-8 -85,-7 -85,2 0,28 27,92 49,118 14,18 37,46 51,65 29,38 82,89 93,89 4,0 7,-6 7,-12 0,-17 49,43 50,60 0,7 -5,22 -11,34 -11,20 -11,20 -34,-2 l -23,-22 -12,21 c -15,29 -6,53 29,72 28,16 29,16 39,-5 10,-20 11,-20 11,4 1,14 8,35 16,47 18,26 5,76 -18,67 -7,-2 -21,4 -31,15 -15,16 -17,27 -9,58 11,49 45,54 53,8 5,-27 6,-26 17,20 22,87 27,135 14,135 -6,0 -14,-7 -17,-15 -9,-22 -18,-18 -32,14 -15,33 -8,58 19,66 22,7 39,43 39,81 0,13 5,33 12,44 14,22 31,13 54,-31 z m 189,-17 c 6,-31 6,-33 -13,-23 -19,10 -35,58 -25,74 9,14 30,-15 38,-51 z m -3179,21 c 5,-19 2,-30 -11,-40 -42,-30 -69,-1 -41,42 21,33 44,32 52,-2 z m 2854,-45 c 0,-50 -12,-62 -30,-29 -14,26 -13,74 2,89 18,18 28,-4 28,-60 z m 264,5 c 13,-45 16,-89 6,-103 -9,-13 -12,-13 -21,3 -5,9 -17,17 -24,17 -20,0 -19,49 1,78 18,27 31,28 38,5 z m -3274,-15 c 0,-4 -4,-8 -9,-8 -4,0 -16,-20 -25,-45 -18,-47 -31,-50 -46,-9 -8,19 -5,30 12,49 20,23 68,32 68,13 z m 76,-55 c -3,-60 0,-74 26,-121 24,-43 28,-56 18,-67 -19,-22 -61,-19 -67,5 -3,11 -10,20 -17,20 -6,0 -19,12 -29,26 -17,23 -18,27 -3,43 11,12 16,37 16,83 0,72 3,78 36,78 22,0 23,-3 20,-67 z m 3131,-21 c 20,-20 15,-82 -10,-126 -27,-48 -43,-55 -58,-23 -8,18 -7,32 5,62 9,20 16,56 16,80 0,48 10,63 24,38 5,-10 16,-24 23,-31 z m -3021,4 c 8,-35 1,-89 -14,-94 -7,-2 -19,12 -28,33 -14,33 -14,39 1,61 20,30 33,31 41,0 z m 2802,-80 c 4,-20 -16,-66 -29,-66 -11,0 -23,66 -14,80 10,17 39,7 43,-14 z m -3036,-50 c 2,-28 -2,-42 -14,-49 -25,-17 -48,8 -48,54 0,31 4,38 23,41 30,5 35,0 39,-46 z m 3385,7 c -3,-10 -5,-4 -5,12 0,17 2,24 5,18 2,-7 2,-21 0,-30 z m -57,-46 c 0,-30 -6,-62 -14,-73 -14,-18 -15,-18 -25,9 -15,39 -14,69 5,95 24,35 34,26 34,-31 z m -3249,-24 c 15,-18 18,-96 5,-128 -7,-21 -50,-19 -68,3 -33,37 -28,101 9,130 23,17 37,15 54,-5 z m 147,-36 c 2,-15 0,-27 -5,-27 -4,0 -17,-3 -29,-6 -15,-4 -23,1 -32,21 -11,23 -9,27 11,35 35,14 52,7 55,-23 z m 3032,-44 c 0,-23 -8,-42 -26,-60 l -26,-26 -19,24 c -27,35 -23,89 7,89 7,0 19,10 25,22 11,21 12,21 25,3 8,-10 14,-34 14,-52 z m -252,-6 c 6,-5 12,-18 12,-28 0,-20 -33,-59 -49,-59 -15,0 -23,36 -16,74 7,35 20,38 53,13 z m -3074,-21 c 11,-26 19,-33 33,-30 24,6 49,-32 33,-51 -10,-12 -18,-11 -50,6 -54,28 -74,53 -66,84 9,35 33,31 50,-9 z m 261,-38 c 8,-56 -6,-68 -52,-46 -41,19 -41,47 -2,79 19,15 37,25 41,21 3,-4 9,-28 13,-54 z m 3133,-26 c 9,-6 8,-17 -7,-48 -11,-22 -27,-46 -35,-54 -14,-11 -16,-7 -16,37 0,62 22,87 58,65 z m -3228,-47 c 13,-14 29,-25 37,-25 16,0 17,-26 2,-36 -6,-3 -15,-1 -19,5 -13,22 -32,-16 -34,-67 -1,-42 2,-49 29,-68 16,-12 50,-24 74,-27 52,-7 65,-18 56,-46 -4,-14 -15,-21 -33,-22 -26,0 -26,0 -4,-9 23,-10 26,-14 37,-64 5,-25 4,-28 -14,-23 -12,3 -24,1 -27,-4 -6,-11 14,-79 24,-79 31,0 141,-24 173,-37 39,-15 39,-16 19,-30 -14,-10 -34,-13 -57,-10 -30,5 -34,4 -29,-11 29,-88 31,-104 15,-113 -11,-6 -15,-20 -13,-44 1,-19 -2,-35 -7,-35 -5,0 -9,4 -9,8 0,5 -27,16 -60,25 -77,22 -78,47 -1,47 15,0 30,2 33,5 11,12 -5,53 -23,58 -13,4 -19,14 -19,34 -1,37 -17,58 -63,76 -25,11 -42,28 -54,51 -12,26 -19,33 -26,24 -7,-10 -10,-10 -14,0 -2,6 -13,12 -24,12 -10,0 -24,11 -31,24 -7,13 -33,39 -58,58 -30,23 -46,43 -48,61 -5,41 23,34 56,-13 15,-22 39,-45 55,-52 15,-7 27,-18 27,-25 0,-23 47,-45 80,-38 36,8 37,12 9,41 -16,17 -19,26 -10,42 15,28 -7,47 -31,26 -16,-15 -20,-14 -55,16 -21,18 -41,39 -45,45 -9,14 7,30 37,38 16,4 15,5 -5,6 -15,0 -31,6 -37,12 -15,15 -6,70 14,86 13,10 12,14 -6,32 -24,24 -26,42 -9,59 20,20 63,14 88,-13 z m 155,-5 c -3,-5 -1,-11 5,-15 5,-3 10,-13 10,-21 0,-11 -6,-13 -22,-8 -31,9 -30,8 -18,38 5,15 15,24 20,21 6,-4 8,-10 5,-15 z m -322,-29 c 37,-14 49,-101 14,-101 -26,0 -40,20 -47,64 -7,49 -5,51 33,37 z m 3293,-16 c 6,-25 -21,-83 -33,-71 -4,3 -11,2 -17,-3 -6,-4 -19,-11 -30,-15 -16,-5 -17,-3 -11,21 16,66 33,93 59,93 19,0 27,-7 32,-25 z m -246,-15 c 33,-17 -4,-80 -47,-80 -18,0 -23,5 -23,26 0,54 28,76 70,54 z m -2782,-16 c 12,-8 22,-21 22,-29 0,-8 7,-18 15,-23 17,-9 29,-72 14,-72 -5,0 -11,11 -15,24 -5,21 -13,25 -47,28 -40,3 -42,5 -45,37 -2,20 2,37 10,42 18,12 20,11 46,-7 z m 2646,-151 c -21,-27 -44,-41 -44,-26 0,4 9,23 21,42 15,25 23,31 32,22 8,-8 6,-18 -9,-38 z m 346,19 c 0,-11 -14,-38 -31,-62 -30,-41 -33,-42 -45,-25 -20,27 -17,55 8,82 27,28 68,31 68,5 z m -136,-94 c 5,-46 3,-55 -15,-70 -24,-20 -64,-24 -74,-7 -17,26 44,129 76,129 3,0 9,-24 13,-52 z m -2712,-35 c 8,-16 22,-40 32,-55 18,-28 18,-28 -9,-38 -60,-23 -90,1 -79,64 3,22 8,44 11,49 9,16 32,6 45,-20 z m 2448,17 c 0,-8 -20,-58 -27,-69 -1,-2 -9,2 -17,8 -17,14 -13,50 6,63 18,11 38,10 38,-2 z m -26,-114 c -3,-11 -15,-31 -26,-42 -13,-14 -16,-24 -9,-29 12,-7 15,-55 3,-55 -16,0 -53,32 -67,60 -14,27 -14,28 31,63 49,38 79,40 68,3 z m 300,12 c -21,-35 -78,-98 -89,-98 -18,0 -26,26 -15,54 6,16 24,29 52,39 54,19 61,20 52,5 z m -2992,-20 22,-22 -29,-8 c -30,-8 -55,4 -55,27 0,12 14,22 33,24 4,1 17,-9 29,-21 z m 2837,-10 c -6,-13 -23,-34 -37,-46 -21,-19 -22,-21 -6,-13 19,9 22,7 27,-15 5,-26 -9,-37 -80,-58 -28,-9 -47,22 -34,56 40,101 37,98 91,98 49,0 50,-1 39,-22 z m -2427,-20 c -12,-12 -35,-1 -27,12 3,5 13,6 21,3 10,-4 12,-9 6,-15 z m -6,-44 c -4,-9 -9,-15 -11,-12 -3,3 -3,13 1,22 4,9 9,15 11,12 3,-3 3,-13 -1,-22 z m -291,-54 c 0,-43 -1,-45 -31,-48 -19,-2 -36,3 -45,14 -12,14 -10,19 10,35 14,12 21,25 17,35 -5,12 0,15 22,12 25,-3 27,-6 27,-48 z m 2460,25 c 22,-13 50,-25 62,-25 38,0 35,-18 -4,-29 -80,-22 -145,-7 -136,31 13,58 19,60 78,23 z m -2153,-7 c 23,-19 31,-74 12,-93 -32,-32 -114,-10 -114,31 0,16 59,73 76,74 5,0 17,-6 26,-12 z m 127,-52 c 10,-12 7,-18 -13,-31 -30,-20 -56,-14 -56,14 0,31 48,42 69,17 z m 1853,-43 c -13,-35 -27,-52 -56,-68 -21,-12 -43,-30 -49,-41 -10,-18 -9,-18 10,-1 16,14 26,16 47,7 58,-22 71,-15 91,48 10,31 19,62 21,69 3,12 47,4 74,-12 29,-18 -34,-115 -75,-115 -14,0 -62,-24 -111,-56 -23,-16 -25,-15 -58,19 -49,52 -51,72 -10,97 19,11 42,33 52,49 16,29 44,49 69,50 9,1 8,-12 -5,-46 z m 311,30 c -7,-2 -19,-2 -25,0 -7,3 -2,5 12,5 14,0 19,-2 13,-5 z m -43,-42 c 0,-19 -40,-61 -58,-61 -12,0 -12,-4 2,-24 10,-16 12,-27 6,-31 -6,-4 -8,-10 -5,-15 5,-8 -45,-21 -57,-14 -4,3 0,23 9,45 12,31 13,46 5,64 -12,27 4,46 53,62 31,10 45,3 45,-26 z m 147,19 c 2,-23 -50,-70 -78,-70 -21,0 -22,1 -13,25 8,19 61,48 75,40 5,-4 9,-3 8,2 -2,11 0,23 4,23 1,0 3,-9 4,-20 z m -2347,-55 c 17,-9 30,-21 30,-27 0,-7 6,-4 13,5 15,21 70,25 92,7 11,-9 15,-25 13,-49 -2,-29 -8,-37 -25,-39 -16,-2 -23,2 -23,13 0,9 -4,14 -9,11 -5,-4 -12,0 -14,6 -5,13 -20,-1 -31,-27 -2,-5 -16,2 -32,16 -26,23 -81,49 -105,49 -23,0 -5,-28 29,-45 47,-24 83,-55 76,-66 -3,-5 -23,-9 -46,-9 -50,0 -98,32 -98,65 0,18 -7,25 -30,30 -56,12 -30,54 35,56 33,1 53,5 93,18 2,1 16,-6 32,-14 z m 284,-52 c 33,-17 25,-28 -26,-36 -39,-6 -68,10 -68,37 0,29 34,29 94,-1 z m 1423,11 c 6,-16 -51,-74 -73,-74 -28,0 -25,35 6,62 34,32 58,36 67,12 z m -1971,-51 c -6,-6 -36,9 -36,18 0,5 9,4 20,-3 10,-7 18,-14 16,-15 z m 2035,-20 c 8,-9 32,-24 53,-34 l 39,-17 -34,-21 c -19,-12 -42,-21 -52,-21 -11,0 -30,-9 -44,-20 -26,-20 -83,-28 -83,-11 0,24 22,63 56,100 41,46 46,48 65,24 z m 239,2 c 0,-8 -13,-29 -28,-46 -22,-24 -33,-30 -50,-25 -39,13 -19,52 38,75 35,14 40,13 40,-4 z m -1835,-21 c 15,-4 25,-15 29,-36 15,-75 0,-99 -34,-55 -10,12 -41,31 -70,41 l -53,19 39,23 c 22,13 45,22 52,19 8,-3 24,-8 37,-11 z m 205,-23 c 0,-23 -53,-61 -93,-67 -28,-5 -34,-1 -44,22 -27,58 -21,64 62,63 64,-1 75,-3 75,-18 z m 73,5 c 16,-13 16,-14 -4,-28 -20,-13 -21,-17 -10,-51 14,-42 18,-43 49,-21 24,17 29,53 10,73 -11,10 -4,11 34,7 71,-8 98,-17 98,-31 0,-21 -30,-39 -64,-40 -37,0 -43,-25 -8,-40 19,-9 14,-11 -40,-21 -56,-10 -67,-10 -100,7 -26,13 -58,19 -105,19 -77,0 -74,11 10,30 61,14 87,41 87,90 0,23 17,25 43,6 z m 1061,-3 c 4,-10 -1,-24 -12,-35 -18,-19 -19,-19 -42,0 -21,17 -22,22 -11,36 18,21 57,21 65,-1 z m 74,-8 c 2,-10 15,-27 29,-39 l 25,-22 -33,-30 c -34,-30 -37,-37 -47,-84 -2,-14 -14,-35 -25,-48 -17,-18 -30,-22 -66,-20 -81,5 -65,45 42,100 37,20 46,28 30,28 -30,0 -30,-1 13,128 6,18 28,10 32,-13 z m 42,15 c 8,-5 11,-10 5,-10 -5,0 -17,5 -25,10 -8,5 -10,10 -5,10 6,0 17,-5 25,-10 z m 449,-29 c -25,-34 -42,-41 -32,-13 6,17 45,53 51,47 2,-2 -6,-17 -19,-34 z m -2194,-4 c 22,-17 14,-33 -21,-41 -30,-8 -54,8 -54,35 0,23 46,26 75,6 z m 1405,0 c 0,-8 -11,-24 -24,-36 -21,-20 -27,-21 -45,-9 -25,16 -23,29 10,45 32,17 59,16 59,0 z m 154,-53 39,-44 -36,-15 c -48,-20 -63,-19 -88,6 -15,15 -19,28 -14,47 16,65 45,67 99,6 z m -1347,0 c 24,-19 41,-40 38,-45 -16,-25 -105,2 -154,47 -2,2 2,10 9,19 21,25 60,17 107,-21 z m 623,16 c 13,-8 11,-11 -7,-16 -27,-7 -28,-13 -9,-39 12,-17 17,-17 46,-5 29,12 34,12 46,-5 20,-27 18,-31 -20,-49 -48,-23 -103,-20 -143,7 -35,24 -42,37 -18,37 8,0 29,18 46,40 35,44 37,44 59,30 z m 249,-6 c 8,-7 -16,-21 -71,-41 -52,-19 -56,-24 -34,-42 18,-15 88,1 128,30 l 27,19 16,-33 c 9,-20 30,-40 51,-50 30,-15 33,-20 24,-37 -21,-39 -54,-52 -99,-40 -58,15 -59,28 -5,52 44,19 46,22 29,34 -16,12 -21,12 -34,0 -29,-26 -70,-30 -111,-10 -42,20 -74,64 -53,71 7,2 9,11 6,19 -11,29 100,54 126,28 z m 971,-3 c 0,-13 -50,-51 -66,-51 -7,0 -18,-9 -24,-20 -13,-24 -60,-28 -60,-4 0,24 59,79 72,66 7,-7 18,-6 36,4 32,16 42,17 42,5 z m -759,-17 c 29,-14 30,-17 15,-33 -9,-10 -16,-22 -16,-28 0,-5 -8,-17 -18,-27 -18,-15 -21,-15 -45,4 -26,20 -44,71 -32,90 9,15 62,12 96,-6 z m 165,-120 c -20,-14 -132,-10 -149,6 -5,4 6,18 23,31 17,13 45,36 63,51 l 32,26 25,-50 c 24,-48 24,-51 6,-64 z m 404,66 c 0,-15 -61,-50 -86,-50 -29,0 -49,24 -32,38 24,19 118,29 118,12 z m -1512,-16 c 7,-13 13,-14 30,-5 26,14 72,14 92,1 13,-9 12,-13 -9,-30 -27,-23 -51,-26 -69,-8 -10,10 -17,10 -33,0 -17,-11 -27,-11 -55,3 -37,17 -40,25 -22,43 17,17 55,15 66,-4 z m 365,-30 c 21,-14 37,-30 35,-36 -5,-14 -77,-38 -97,-31 -27,10 -51,35 -51,54 0,16 28,31 70,38 3,1 22,-11 43,-25 z m -152,-26 c -10,-27 -29,-32 -78,-23 -42,8 -34,21 22,34 62,14 65,14 56,-11 z m 414,3 c 17,-19 16,-21 -16,-40 -37,-23 -42,-24 -88,-15 -45,9 -36,35 19,56 58,22 63,22 85,-1 z m 520,-21 c -12,-13 -13,-20 -5,-25 8,-5 6,-12 -5,-25 -18,-20 -65,-33 -65,-18 0,5 -4,6 -10,3 -5,-3 -10,-2 -10,2 0,5 14,17 30,26 17,10 30,26 30,36 0,24 8,30 31,24 18,-5 19,-7 4,-23 z m -174,-22 38,-21 -31,-24 c -42,-31 -108,-30 -108,2 0,13 44,65 56,65 3,0 24,-10 45,-22 z m -553,-19 c 11,-18 11,-24 -4,-40 -20,-23 -37,-24 -53,-5 -10,11 -7,19 11,39 29,31 30,31 46,6 z m 256,-18 c -1,-20 4,-21 70,-21 67,0 69,-1 53,-17 -12,-13 -36,-18 -77,-20 -33,-1 -60,2 -60,6 0,5 -11,6 -25,3 -20,-3 -25,0 -25,17 0,25 36,64 53,58 7,-2 12,-14 11,-26 z m 765,3 c -12,-15 -59,-20 -59,-6 0,10 52,30 63,24 4,-2 3,-10 -4,-18 z m -1196,-6 c 37,-14 29,-33 -14,-35 -19,-1 -26,1 -16,3 26,8 20,22 -13,29 -16,4 -30,11 -30,16 0,10 22,6 73,-13 z m -253,2 c 12,-8 11,-10 -7,-10 -13,0 -23,5 -23,10 0,13 11,13 30,0 z m 534,-20 c 16,-16 -5,-30 -44,-30 -41,0 -55,11 -46,37 5,12 15,14 44,8 20,-3 41,-10 46,-15 z m 596,-24 c 0,-2 -3,-11 -6,-20 -9,-23 -30,-20 -30,4 0,13 7,20 18,20 10,0 18,-2 18,-4 z m -290,-48 c 0,-7 -11,-14 -25,-14 -31,-2 -33,13 -2,19 12,2 23,5 25,6 1,0 2,-5 2,-11 z m 1360,-63 c 0,-7 -7,-18 -15,-25 -9,-7 -15,-23 -13,-34 2,-12 -2,-25 -9,-31 -6,-5 -15,-26 -18,-45 -6,-31 -2,-40 30,-73 38,-39 40,-64 10,-96 -10,-10 -11,-21 -2,-44 9,-27 7,-33 -18,-54 -35,-31 -88,-29 -93,4 -2,15 4,23 20,29 13,4 33,18 46,31 18,19 20,28 12,44 -7,13 -8,31 -1,54 8,30 7,35 -7,35 -27,-1 -52,-24 -42,-40 11,-17 4,-30 -16,-30 -20,0 -30,30 -13,41 12,7 12,10 1,18 -17,11 -14,22 9,39 11,7 19,22 19,32 0,11 14,42 30,69 18,28 28,55 24,65 -9,24 15,50 32,35 8,-6 14,-17 14,-24 z m -106,-31 c 10,-26 7,-31 -23,-44 -50,-20 -72,14 -29,44 29,20 44,20 52,0 z m -533,-13 c 91,-31 154,-68 216,-125 232,-215 116,-544 -260,-737 -304,-156 -758,-228 -1037,-165 -276,63 -468,184 -547,344 -34,68 -38,83 -38,156 0,69 4,90 29,139 51,105 157,190 328,265 94,41 116,43 287,23 138,-17 418,-10 539,13 100,18 247,57 322,84 70,26 94,26 161,3 z m 684,-80 c 7,-23 -4,-71 -16,-71 -12,0 -39,42 -39,61 0,15 12,23 42,28 4,0 9,-8 13,-18 z m -209,-46 c 18,-14 17,-14 -13,-15 -31,0 -49,11 -36,24 10,10 28,7 49,-9 z m -2374,-38 c 9,-7 18,-22 20,-32 1,-11 6,-24 10,-30 4,-5 24,-31 43,-58 36,-49 41,-62 26,-71 -16,-10 -61,33 -54,52 6,14 4,15 -9,4 -14,-11 -19,-8 -39,19 -18,25 -20,35 -11,49 9,14 8,19 -3,24 -15,5 -21,56 -7,56 4,0 14,-6 24,-13 z m 142,-52 c 3,-9 0,-15 -9,-15 -9,0 -12,6 -9,15 4,8 7,15 9,15 2,0 5,-7 9,-15 z m 2496,-26 c 0,-25 -14,-31 -35,-15 -15,10 -16,16 -6,35 10,18 15,20 27,10 8,-6 14,-20 14,-30 z m -237,-29 c -3,-10 -14,-26 -24,-36 -18,-16 -19,-16 -19,17 0,41 17,64 36,48 6,-5 10,-18 7,-29 z m -2464,4 c 16,-12 22,-23 18,-40 -3,-18 2,-25 24,-35 16,-6 29,-15 29,-19 0,-4 9,-10 20,-13 23,-6 45,-56 32,-69 -6,-6 -20,-8 -33,-6 -20,2 -25,10 -27,40 -3,35 -4,37 -28,27 -30,-11 -44,-5 -44,20 0,10 -9,21 -20,24 -15,4 -20,14 -20,39 0,51 11,58 49,32 z m 2662,-112 c 2,-29 0,-54 -3,-57 -3,-3 -18,-3 -33,1 -24,6 -26,10 -20,41 3,19 14,51 23,70 14,30 17,32 23,15 4,-11 9,-42 10,-70 z m -2692,-11 c 20,-13 -2,-64 -26,-59 -26,5 -39,34 -24,52 15,18 29,20 50,7 z m 2595,-26 c 12,-9 19,-28 20,-54 2,-37 -3,-46 -56,-101 -61,-64 -67,-67 -86,-48 -18,18 -14,52 8,76 17,18 25,20 41,12 16,-9 21,-7 29,15 13,34 13,41 -2,64 -13,21 -5,51 14,51 7,0 21,-7 32,-15 z m -98,-21 c 17,-25 17,-26 -12,-49 -16,-14 -32,-24 -36,-25 -12,0 -10,58 2,81 14,26 26,24 46,-7 z m -2421,-28 c 29,-43 -6,-72 -56,-46 -25,14 -24,35 3,54 30,21 35,20 53,-8 z m 137,-8 c -6,-6 -15,-9 -18,-5 -4,3 -4,14 0,23 5,13 9,15 18,6 9,-9 9,-15 0,-24 z m -31,-102 c -18,-22 -35,-20 -67,8 -28,23 -28,24 -10,51 l 18,28 36,-36 c 30,-30 33,-38 23,-51 z m -193,52 c 19,-19 15,-48 -8,-48 -27,0 -70,29 -70,46 0,18 61,19 78,2 z m 2702,-37 c -13,-26 -40,-27 -40,-2 0,24 43,56 48,35 2,-7 -2,-22 -8,-33 z m -270,25 c 0,-8 -4,-17 -9,-21 -12,-7 -24,12 -16,25 9,15 25,12 25,-4 z m -2345,-63 c 17,-25 17,-27 -1,-40 -26,-19 -47,-16 -62,8 -11,18 -11,24 4,40 23,26 38,24 59,-8 z m 2555,-18 c 0,-27 -27,-65 -47,-65 -12,0 -14,7 -8,38 8,45 34,79 47,60 4,-7 8,-22 8,-33 z m -203,-22 c -4,-21 -2,-42 5,-50 8,-11 6,-25 -11,-58 -12,-25 -20,-49 -17,-54 8,-12 -42,-71 -60,-71 -7,0 -21,11 -30,25 -13,20 -14,28 -4,40 7,8 19,15 28,15 28,0 51,30 46,59 -4,18 0,33 11,44 9,10 11,17 5,17 -6,0 -19,7 -28,16 -15,15 -14,18 7,35 38,31 55,25 48,-18 z m -2244,-8 c 32,-29 34,-41 7,-50 -29,-9 -55,2 -70,29 -25,48 16,62 63,21 z m -174,-16 c 5,8 15,5 31,-9 13,-11 29,-20 37,-20 7,0 13,-3 13,-7 0,-13 77,-46 89,-38 8,5 10,-1 6,-18 -4,-15 0,-38 10,-57 20,-38 15,-45 -21,-33 -38,13 -52,37 -37,63 12,18 11,19 -12,10 -14,-5 -32,-7 -40,-4 -22,9 -37,41 -30,64 8,24 -2,25 -27,3 -16,-14 -20,-15 -33,-2 -14,14 -19,32 -16,59 1,12 4,11 12,-4 8,-12 14,-15 18,-7 z m 2525,-5 c 33,-32 -33,-84 -69,-54 -20,17 -19,26 5,50 24,24 43,25 64,4 z m -189,-34 c 9,-27 -11,-50 -41,-50 -31,0 -32,33 -2,54 29,21 35,20 43,-4 z m -2085,-16 c 0,-17 -22,-14 -28,4 -2,7 3,12 12,12 9,0 16,-7 16,-16 z m 2290,-59 c 0,-25 -46,-65 -75,-65 -18,0 -25,5 -25,19 0,23 11,31 60,47 19,7 36,12 38,13 1,1 2,-6 2,-14 z m -2238,-38 c 34,-25 28,-37 -22,-37 -42,0 -66,24 -54,55 8,19 35,12 76,-18 z m 1948,-11 c 0,-13 7,-29 15,-36 27,-22 17,-33 -22,-25 -21,4 -43,11 -49,16 -6,5 -23,5 -41,0 -45,-13 -62,3 -21,20 18,8 36,13 41,11 4,-1 16,7 27,18 27,27 50,26 50,-4 z m -2176,-3 c 15,-39 -38,-42 -62,-3 -11,19 -10,20 22,20 22,0 36,-6 40,-17 z m 147,-69 c 30,-27 23,-44 -16,-45 -19,-1 -41,-2 -47,-3 -7,-1 -13,4 -14,9 0,6 -4,18 -9,29 -16,37 48,45 86,10 z m 193,1 c 32,-29 32,-36 4,-61 -21,-19 -21,-19 -15,4 4,16 -1,30 -14,43 -40,40 -17,53 25,14 z m -68,-31 c 20,-48 8,-60 -40,-43 -44,16 -51,33 -24,59 31,29 47,25 64,-16 z m 1722,-20 c -2,-15 -14,-20 -51,-22 -59,-4 -62,12 -5,38 45,20 62,15 56,-16 z m 140,15 c 2,-10 -16,-27 -48,-47 -50,-31 -55,-30 -50,13 4,43 20,56 58,53 24,-2 38,-9 40,-19 z m 96,-1 c 7,-28 -17,-54 -57,-64 -27,-6 -28,-5 -21,22 9,39 13,44 38,54 31,13 33,12 40,-12 z m -1814,-67 c 18,-34 13,-43 -22,-36 -39,9 -58,22 -58,41 0,23 67,18 80,-5 z m 1450,-3 c 0,-6 -11,-35 -25,-65 -27,-57 -56,-77 -104,-71 -27,3 -30,14 -16,58 l 8,25 -22,-25 -22,-25 7,25 c 13,48 24,70 33,70 6,0 8,-7 4,-16 -4,-10 0,-20 10,-26 10,-5 17,-15 17,-23 0,-8 5,-17 12,-21 7,-5 9,-2 5,8 -7,21 3,31 19,18 9,-8 12,-4 10,15 0,14 -7,25 -13,25 -9,0 -7,6 5,19 19,21 72,28 72,9 z m -1567,-20 c 29,-15 16,-43 -20,-46 -27,-3 -34,2 -47,27 -9,16 -16,32 -16,35 0,7 61,-5 83,-16 z m 1707,14 c 0,-2 -9,-15 -20,-29 -11,-14 -20,-31 -20,-37 0,-7 -16,-18 -36,-25 -30,-11 -35,-16 -30,-36 4,-16 1,-25 -10,-29 -26,-10 -32,-7 -38,19 -5,19 1,35 25,64 22,29 29,45 24,61 -6,20 -4,21 49,19 31,-1 56,-4 56,-7 z m -1472,-17 c 12,-3 22,-10 22,-15 0,-8 -34,-20 -61,-20 -18,0 -33,26 -23,41 3,6 13,8 22,5 10,-2 27,-7 40,-11 z m -328,-5 c 0,-13 -40,-13 -60,0 -11,7 -5,10 23,10 20,0 37,-4 37,-10 z m 1463,-21 c -12,-4 -24,-12 -28,-18 -11,-18 -37,-13 -33,6 2,11 16,20 33,24 37,7 56,-1 28,-12 z m 434,-13 c 1,-20 -4,-29 -20,-35 -12,-5 -24,-5 -27,-1 -3,4 -12,9 -20,12 -11,3 -8,11 13,32 33,32 51,30 54,-8 z m -1645,-15 c 10,-8 18,-22 18,-29 0,-24 -81,-4 -113,28 l -29,27 53,-5 c 28,-3 60,-12 71,-21 z m 238,-19 c 0,-17 -36,-42 -60,-42 -6,0 -10,14 -10,30 0,28 3,30 35,30 27,0 35,-4 35,-18 z m 89,2 c 3,-3 -1,-10 -7,-16 -9,-9 -12,-9 -12,1 0,8 -6,11 -15,7 -9,-3 -15,0 -15,10 0,11 6,14 23,8 12,-3 24,-8 26,-10 z m -194,-24 c 8,-16 15,-31 15,-35 0,-7 -64,-7 -84,1 -24,9 -19,43 7,54 36,14 46,12 62,-20 z m 968,16 c 15,-37 -52,-73 -81,-44 -19,19 -14,36 16,46 39,15 59,14 65,-2 z m -180,-2 c 10,-10 -70,-84 -91,-84 -10,0 -27,9 -37,20 -17,19 -17,20 26,38 80,34 91,37 102,26 z m -1043,-32 c 0,-15 -6,-18 -30,-14 -16,2 -35,10 -41,18 -9,12 -4,14 30,14 33,0 41,-4 41,-18 z m 558,12 c 32,-9 27,-21 -18,-44 -49,-25 -57,-25 -70,0 -9,16 -6,22 17,34 32,17 39,18 71,10 z m 764,-5 c 20,-11 20,-11 -3,-35 -23,-25 -79,-34 -79,-12 0,14 40,58 52,58 5,0 18,-5 30,-11 z m -1174,-48 c 5,-15 -55,-24 -78,-11 -20,11 -19,19 3,48 8,10 16,8 41,-7 17,-11 32,-24 34,-30 z m 637,40 c 7,-12 -42,-51 -65,-51 -24,0 -58,38 -39,44 48,16 96,19 104,7 z m -364,-28 c 7,-16 15,-31 17,-34 1,-4 -16,-9 -40,-12 -31,-4 -48,-1 -60,10 -25,23 -23,31 15,47 46,20 52,19 68,-11 z m 697,2 c 19,-41 14,-52 -22,-59 -37,-7 -86,1 -86,14 0,5 16,18 35,30 19,12 35,26 35,31 0,19 27,8 38,-16 z m -260,-23 c 5,-32 -34,-65 -66,-57 -45,11 -45,21 0,53 48,34 62,35 66,4 z m -200,-3 c 7,-12 12,-22 10,-23 -69,-54 -103,-60 -148,-26 l -24,18 59,17 c 33,10 64,21 70,26 13,13 19,11 33,-12 z m 751,12 c 19,-12 1,-36 -39,-49 -37,-13 -43,-6 -23,29 18,30 37,36 62,20 z m -1106,-29 c 10,-10 14,-22 10,-25 -10,-11 -81,-8 -88,3 -4,6 -11,8 -16,5 -5,-4 -9,1 -9,9 0,14 20,22 66,25 11,0 28,-7 37,-17 z m 935,7 c 37,2 41,-11 10,-33 -31,-22 -65,-20 -78,3 -16,32 -12,43 13,35 12,-4 37,-6 55,-5 z m -274,-32 c 19,-9 19,-11 -8,-33 -32,-28 -46,-29 -88,-8 l -31,16 29,23 c 29,24 55,25 98,2 z m -494,-12 c 10,-12 6,-17 -23,-31 -36,-17 -93,-13 -82,7 7,10 63,37 81,38 6,1 17,-6 24,-14 z m 300,-31 c 0,-15 -90,-43 -119,-38 -53,11 -34,36 39,51 40,9 80,2 80,-13 z m 293,-10 c -2,-7 -11,-15 -19,-18 -10,-4 -12,-2 -8,5 5,8 -3,10 -25,7 -35,-5 -38,-2 -15,23 12,14 20,15 44,6 16,-6 26,-16 23,-23 z m 87,-9 c 0,-30 -3,-31 -30,-8 -19,16 -19,18 -3,25 29,11 33,9 33,-17 z m -604,-5 c 20,-8 24,-14 16,-22 -8,-8 -22,-8 -53,1 -31,10 -39,15 -28,22 18,11 32,11 65,-1 z m 298,-26 c 22,-8 10,-24 -19,-24 -30,0 -55,10 -55,21 0,10 50,12 74,3 z m 894,-357 c 2,-12 -1,-15 -12,-11 -19,7 -22,38 -3,32 6,-3 13,-12 15,-21 z m -28,-26 c 7,-15 5,-30 -9,-63 l -19,-43 -13,28 c -10,22 -10,33 -1,48 7,10 12,26 12,34 0,21 17,19 30,-4 z m 84,-52 c 7,-37 -4,-62 -15,-33 -11,27 -11,64 0,64 5,0 11,-14 15,-31 z m -25,-66 c 1,-18 -3,-33 -9,-33 -5,0 -10,24 -9,53 0,38 3,47 9,32 5,-11 9,-35 9,-52 z m -33,30 c -10,-10 -19,5 -10,18 6,11 8,11 12,0 2,-7 1,-15 -2,-18 z m -68,-45 c -6,-18 -28,-21 -28,-4 0,9 7,16 16,16 9,0 14,-5 12,-12 z m 60,-16 c 9,-6 10,-19 4,-48 -9,-46 -21,-48 -45,-7 -16,28 -16,32 -2,47 18,18 25,19 43,8 z m 72,-42 c 0,-16 -4,-32 -10,-35 -5,-3 -10,-13 -10,-21 0,-8 -9,-23 -21,-35 -19,-19 -23,-20 -37,-6 -19,20 -4,42 33,51 21,5 25,12 25,47 0,24 4,38 10,34 6,-3 10,-19 10,-35 z m -140,-54 c 0,-22 -17,-46 -33,-46 -8,0 -1,55 10,73 8,13 23,-4 23,-27 z m 40,-48 c 0,-33 -11,-43 -47,-45 -25,-2 -31,1 -26,13 3,8 12,13 20,10 8,-3 18,4 25,19 14,31 28,32 28,3 z m 56,-65 c -6,-14 -9,-15 -16,-4 -11,19 -1,46 13,32 5,-5 7,-18 3,-28 z m -176,-1 c 0,-13 -12,-22 -22,-16 -10,6 -1,24 13,24 5,0 9,-4 9,-8 z m 95,-22 c 0,-19 -6,-26 -24,-28 -35,-5 -48,13 -26,38 24,27 50,22 50,-10 z m 45,-2 c 0,-13 -29,-48 -41,-48 -4,0 0,13 9,30 17,31 32,39 32,18 z m -144,-20 c 4,-7 2,-14 -6,-16 -8,-3 -24,-16 -36,-29 l -22,-23 -4,25 c -4,20 0,29 21,40 32,18 38,18 47,3 z m 33,-42 c 9,-11 7,-20 -12,-42 -23,-26 -56,-27 -40,-1 4,7 0,6 -10,-2 -23,-18 -21,-5 4,30 22,32 40,36 58,15 z m -125,-28 c -13,-44 -24,-49 -56,-27 -33,24 -32,28 14,39 49,12 50,12 42,-12 z m -107,-44 c 2,-6 -8,-21 -22,-34 -14,-13 -25,-18 -25,-11 0,8 -7,10 -21,6 -18,-6 -20,-4 -14,15 7,21 4,22 -24,18 -18,-3 -34,-1 -37,4 -3,5 17,8 45,7 28,-1 54,0 57,3 8,9 37,3 41,-8 z m -227,-4 c 0,-13 -28,-25 -38,-16 -3,4 0,11 8,16 20,13 30,12 30,0 z m -201,-26 c -7,-9 -15,-12 -17,-6 -1,5 -12,7 -24,4 -14,-3 -19,-1 -14,6 4,7 21,12 38,12 27,0 29,-2 17,-16 z m 273,-10 c -5,-26 -23,-43 -29,-26 -4,9 -8,10 -18,2 -8,-7 -15,-7 -19,-1 -7,12 43,53 58,48 6,-2 9,-13 8,-23 z m 248,16 c 0,-5 8,-6 18,-3 15,6 15,5 3,-10 -7,-9 -23,-16 -35,-16 -11,0 -32,-3 -45,-7 -25,-7 -24,0 2,34 11,14 57,16 57,2 z m -402,-16 c 9,-6 -70,-36 -83,-30 -39,15 9,49 55,39 14,-3 26,-7 28,-9 z m -218,-16 c 0,-19 -31,-48 -52,-48 -10,0 -18,5 -18,11 0,6 -7,8 -16,5 -10,-4 -14,-1 -11,6 2,7 11,13 20,13 9,0 22,6 29,13 15,15 48,16 48,0 z m 244,-31 c -7,-19 -44,-23 -44,-6 0,16 33,39 43,30 4,-4 5,-15 1,-24 z m -184,10 c 0,-14 -20,-37 -32,-37 -10,0 -11,34 -1,43 11,12 33,8 33,-6 z m 406,-1 c 10,-8 16,-17 13,-21 -10,-9 -68,-10 -77,-1 -6,7 24,36 38,36 3,0 15,-6 26,-14 z m -631,-16 c -3,-5 -11,-10 -16,-10 -6,0 -7,5 -4,10 3,6 11,10 16,10 6,0 7,-4 4,-10 z m 275,-9 c 0,-11 -19,-24 -37,-27 -16,-3 -17,8 -1,24 14,14 38,16 38,3 z m 225,-6 c 0,-5 -17,-11 -37,-13 -31,-3 -37,0 -32,13 7,18 69,18 69,0 z m 180,-5 c -3,-5 -11,-10 -16,-10 -6,0 -7,5 -4,10 3,6 11,10 16,10 6,0 7,-4 4,-10 z m -685,-8 c 0,-17 -28,-45 -38,-38 -9,5 -8,12 1,26 12,20 37,28 37,12 z m 350,-2 c 0,-5 -13,-10 -30,-10 -16,0 -30,5 -30,10 0,6 14,10 30,10 17,0 30,-4 30,-10 z m -260,-8 c 0,-10 -47,-41 -62,-42 -21,0 -22,4 -8,31 8,13 20,19 40,17 17,-1 30,-4 30,-6 z m 40,-11 c 0,-12 -20,-25 -27,-18 -7,7 6,27 18,27 5,0 9,-4 9,-9 z m -195,-11 c -3,-5 -11,-10 -16,-10 -6,0 -7,5 -4,10 3,6 11,10 16,10 6,0 7,-4 4,-10 z m 232,4 c -3,-3 -12,-4 -19,-1 -8,3 -5,6 6,6 11,1 17,-2 13,-5 z m -257,-32 c 0,-4 -9,-15 -20,-25 -22,-19 -25,-15 -10,14 11,19 30,26 30,11 z m 38,-21 c 10,-6 8,-10 -9,-14 -26,-7 -34,-3 -24,12 7,13 15,14 33,2 z m -110,-43 c -2,-15 -11,-24 -25,-26 -27,-4 -29,5 -6,30 22,24 35,23 31,-4 z m 72,-13 c -15,-17 -40,-20 -40,-4 0,6 7,9 15,5 8,-3 15,-1 15,4 0,6 5,10 11,10 8,0 8,-5 -1,-15 z m -120,-71 c 0,-25 -7,-29 -29,-15 -10,7 -11,13 -2,30 15,26 31,19 31,-15 z m 80,19 c 0,-10 -4,-24 -9,-32 -8,-12 -12,-12 -25,-2 -21,18 -20,38 2,44 30,8 32,7 32,-10 z m -77,-68 c 13,-9 17,-20 12,-34 -7,-24 -25,-28 -25,-6 0,8 -4,15 -9,15 -5,0 -11,9 -14,20 -6,23 10,26 36,5 z m 47,-51 c 0,-34 -13,-46 -23,-21 -7,19 4,68 14,61 5,-3 9,-21 9,-40 z m -82,-38 -11,-21 -10,22 c -5,12 -6,30 -3,40 7,17 8,17 21,-1 11,-14 12,-24 3,-40 z m 44,-52 c -13,-28 -35,-28 -41,1 -4,23 28,50 43,35 6,-6 5,-19 -2,-36 z m 37,-21 c -1,-21 0,-45 2,-53 3,-10 -3,-15 -16,-15 -23,0 -33,34 -14,46 8,4 14,14 15,21 2,30 4,38 9,38 3,0 5,-17 4,-37 z m -86,-27 c 15,-23 15,-24 -3,-19 -11,3 -20,11 -20,18 0,7 -6,16 -12,18 -8,4 -7,6 3,6 9,1 24,-10 32,-23 z m 136,-61 c 0,-5 -4,-3 -9,5 -5,8 -9,22 -9,30 0,16 17,-16 18,-35 z m -95,-11 c 20,-19 11,-40 -10,-23 -13,10 -20,39 -10,39 3,0 12,-7 20,-16 z m 52,-9 c 12,-8 24,-12 27,-9 3,3 11,-4 17,-16 11,-21 10,-22 -22,-15 -31,6 -58,28 -58,47 0,12 13,10 36,-7 z m 102,-61 c -10,-10 -28,6 -28,24 0,15 1,15 17,-1 9,-9 14,-19 11,-23 z m -74,-30 c 4,-9 5,-19 3,-21 -8,-8 -37,10 -37,23 0,19 26,18 34,-2 z m 67,-21 c 7,-18 5,-21 -9,-16 -42,15 -58,47 -21,41 12,-2 25,-13 30,-25 z m 80,-4 c 24,-12 16,-29 -15,-29 -28,0 -36,8 -29,26 6,17 18,18 44,3 z m 69,-30 c 0,-4 -7,-6 -15,-3 -8,4 -15,10 -15,15 0,4 7,6 15,3 8,-4 15,-10 15,-15 z m 68,-38 c 11,-6 10,-10 -3,-21 -20,-16 -48,-3 -53,25 -3,14 1,16 20,10 12,-4 29,-11 36,-14 z m -93,-1 c 4,-6 4,-18 1,-27 -5,-12 -9,-14 -18,-5 -7,7 -22,12 -35,12 -21,0 -30,10 -18,21 9,10 64,9 70,-1 z m 216,-30 c 5,0 9,-4 9,-9 0,-15 -41,-24 -52,-13 -14,14 0,35 19,28 8,-3 19,-6 24,-6 z m -71,-25 c 0,-10 -10,-15 -30,-15 -47,0 -35,27 13,29 9,1 17,-6 17,-14 z m 208,-1 c 2,-1 -5,-7 -16,-13 -15,-8 -23,-6 -37,9 -18,20 -18,20 16,14 19,-4 36,-8 37,-10 z m -311,-10 c -3,-3 -12,-4 -19,-1 -8,3 -5,6 6,6 11,1 17,-2 13,-5 z m 238,-25 c 0,-17 -34,-23 -55,-9 -12,8 -12,12 -2,18 20,13 57,7 57,-9 z m 169,15 c 9,-3 14,-10 11,-15 -7,-10 -35,0 -35,12 0,11 3,11 24,3 z m -36,-16 c 21,-21 13,-28 -33,-26 -49,1 -58,13 -22,28 31,12 41,12 55,-2 z m 86,3 c 3,-5 -1,-14 -9,-21 -13,-10 -15,-9 -15,9 0,21 14,28 24,12 z m 89,-20 c 17,-6 18,-8 3,-20 -14,-12 -19,-11 -37,5 -19,17 -20,17 -25,-3 -4,-15 -11,-20 -22,-16 -10,4 -13,2 -8,-5 4,-7 1,-12 -8,-12 -25,0 -19,19 9,32 14,6 25,15 25,20 0,10 38,9 63,-1 z m 126,-47 c 3,-3 -12,-3 -32,-2 -28,2 -37,7 -37,21 0,17 2,17 33,1 17,-9 34,-18 36,-20 z m -85,0 c 12,-32 7,-45 -13,-34 -13,6 -17,17 -14,30 6,24 19,26 27,4 z m 134,-22 c 11,-8 7,-42 -5,-42 -17,0 -41,23 -37,35 7,17 22,19 42,7 z m -58,-22 c 0,-5 -5,-10 -11,-10 -5,0 -7,5 -4,10 3,6 8,10 11,10 2,0 4,-4 4,-10 z m 120,0 c 0,-5 -4,-10 -9,-10 -6,0 -13,5 -16,10 -3,6 1,10 9,10 9,0 16,-4 16,-10 z m 40,-31 c 0,-6 -4,-7 -10,-4 -5,3 -10,11 -10,16 0,6 5,7 10,4 6,-3 10,-11 10,-16 z m -42,-8 c 8,-5 12,-17 10,-26 -3,-18 -4,-18 -20,-1 -29,28 -21,47 10,27 z m -43,-11 c -3,-5 -12,-10 -18,-10 -7,0 -6,4 3,10 19,12 23,12 15,0 z m 153,-23 c 13,4 14,3 3,-5 -7,-5 -10,-15 -7,-21 4,-6 1,-11 -8,-11 -20,0 -28,14 -19,36 4,10 8,13 10,7 3,-7 12,-9 21,-6 z m -58,-12 c 10,-12 10,-15 -4,-15 -9,0 -16,7 -16,15 0,8 2,15 4,15 2,0 9,-7 16,-15 z m 50,-55 c 0,-5 -4,-10 -9,-10 -6,0 -13,5 -16,10 -3,6 1,10 9,10 9,0 16,-4 16,-10 z m 43,-17 c 14,5 27,-11 27,-34 0,-26 -59,19 -60,46 0,6 4,4 9,-4 5,-8 16,-11 24,-8 z m 68,0 c 13,-17 13,-17 -6,-3 -11,8 -22,16 -24,17 -2,2 0,3 6,3 6,0 17,-8 24,-17 z m 26,-67 c -3,-8 -1,-17 6,-19 7,-2 9,-8 5,-12 -4,-4 -15,-2 -24,5 -13,11 -17,11 -24,1 -6,-11 -8,-11 -12,0 -3,8 5,19 16,25 29,17 39,16 33,0 z m 3,-82 c 0,-8 5,-12 10,-9 6,3 13,-1 16,-9 8,-21 24,-20 24,2 0,14 2,15 10,2 17,-26 11,-33 -21,-26 -39,7 -81,56 -49,56 6,0 10,-7 10,-16 z m 43,-84 c 7,-27 -9,-35 -22,-11 -14,26 -14,31 3,31 7,0 16,-9 19,-20 z m 47,-10 c 0,-5 -4,-10 -10,-10 -5,0 -10,5 -10,10 0,6 5,10 10,10 6,0 10,-4 10,-10 z m -5,-30 c 3,-5 1,-10 -4,-10 -6,0 -11,5 -11,10 0,6 2,10 4,10 3,0 8,-4 11,-10 z m -13,-37 c 22,-20 24,-35 3,-27 -8,4 -15,13 -15,21 0,8 -4,11 -10,8 -5,-3 -10,-1 -10,4 0,16 11,14 32,-6 z m -25,-45 c -3,-8 -6,-5 -6,6 -1,11 2,17 5,13 3,-3 4,-12 1,-19 z m 37,-24 c 3,-8 2,-12 -4,-9 -6,3 -10,10 -10,16 0,14 7,11 14,-7 z m -24,-23 c 0,-6 -4,-13 -10,-16 -5,-3 -10,1 -10,9 0,9 5,16 10,16 6,0 10,-4 10,-9 z m 30,-25 c 0,-3 -4,-8 -10,-11 -5,-3 -10,-1 -10,4 0,6 5,11 10,11 6,0 10,-2 10,-4 z m -46,-41 c -4,-8 -8,-15 -10,-15 -2,0 -4,7 -4,15 0,8 4,15 10,15 5,0 7,-7 4,-15 z m 26,-25 c 0,-5 -4,-10 -10,-10 -5,0 -10,5 -10,10 0,6 5,10 10,10 6,0 10,-4 10,-10 z m -25,-50 c 3,-6 -1,-7 -9,-4 -18,7 -21,14 -7,14 6,0 13,-4 16,-10 z m -30,-60 c -6,-9 -9,-9 -16,1 -10,17 0,34 13,21 6,-6 7,-16 3,-22 z m -25,-46 c 0,-8 -4,-12 -10,-9 -5,3 -10,10 -10,16 0,5 5,9 10,9 6,0 10,-7 10,-16 z m -30,-34 c 0,-5 -5,-10 -11,-10 -5,0 -7,5 -4,10 3,6 8,10 11,10 2,0 4,-4 4,-10 z"
       id="path1" />
    <path
       d="m 9363,13528 c -13,-6 -23,-15 -23,-19 0,-18 17,-16 45,7 31,25 18,31 -22,12 z"
       id="path2" />
    <path
       d="m 9303,13448 c -26,-30 -40,-53 -25,-44 12,7 56,66 49,66 -2,0 -13,-10 -24,-22 z"
       id="path3" />
    <path
       d="m 10210,13426 c 0,-8 5,-18 10,-21 6,-3 10,1 10,9 0,8 -4,18 -10,21 -5,3 -10,-1 -10,-9 z"
       id="path4" />
    <path
       d="m 9938,13177 c -5,-10 -8,-31 -8,-45 1,-24 2,-25 11,-9 6,10 9,30 7,45 -2,23 -4,24 -10,9 z"
       id="path5" />
    <path
       d="m 9481,13084 c 0,-11 3,-14 6,-6 3,7 2,16 -1,19 -3,4 -6,-2 -5,-13 z"
       id="path6" />
    <path
       d="m 10781,13028 c 5,-29 6,-54 4,-56 -2,-3 -27,7 -54,22 -28,14 -53,26 -56,26 -2,0 6,-15 19,-34 19,-28 22,-44 19,-93 l -4,-58 21,33 c 25,37 47,40 83,12 31,-24 50,-25 68,-4 14,17 13,18 -56,67 -14,10 -25,23 -25,30 0,8 4,6 11,-3 12,-18 4,40 -13,83 -17,44 -26,31 -17,-25 z"
       id="path7" />
    <path
       d="m 10726,12811 c -4,-6 3,-15 14,-21 23,-12 27,2 6,19 -9,8 -16,8 -20,2 z"
       id="path8" />
    <path
       d="m 10830,12749 c 0,-21 20,-45 63,-76 48,-35 57,-34 57,8 0,24 -7,32 -42,47 -65,29 -78,32 -78,21 z"
       id="path9" />
    <path
       d="m 10570,12796 c 0,-2 8,-10 18,-17 15,-13 16,-12 3,4 -13,16 -21,21 -21,13 z"
       id="path10" />
    <path
       d="m 11075,12269 c 4,-13 9,-48 11,-77 1,-30 5,-57 9,-60 8,-8 75,62 75,78 0,5 -6,10 -14,10 -7,0 -21,11 -30,25 -9,13 -26,29 -37,36 -20,10 -21,9 -14,-12 z"
       id="path11" />
  </g>
</svg>
