<?xml version="1.0" encoding="UTF-8" standalone="no"?>
<svg
   version="1.0"
   width="486.30002pt"
   height="621.26398pt"
   viewBox="0 0 486.30002 621.26397"
   preserveAspectRatio="xMidYMid"
   id="svg55"
   xmlns="http://www.w3.org/2000/svg"
   xmlns:svg="http://www.w3.org/2000/svg">
  <defs
     id="defs55" />
  <g
     transform="matrix(0.1,0,0,-0.1,-802,1399.264)"
     fill="#000000"
     stroke="none"
     id="g55">
    <path
       d="m 10191,13988 c -10,-3 -29,-20 -42,-36 -13,-16 -99,-113 -191,-216 l -168,-187 v -334 c 0,-192 -4,-336 -9,-340 -5,-3 -21,9 -36,27 -32,39 -25,24 25,-52 53,-79 55,-84 40,-75 -9,5 -10,1 -6,-16 4,-13 -9,3 -28,35 -19,33 -47,73 -62,90 -27,30 -29,30 -32,9 -4,-28 18,-70 66,-126 43,-50 40,-35 61,-320 6,-80 14,-124 25,-140 9,-12 24,-33 33,-47 23,-33 -184,173 -226,225 l -32,40 17,-35 c 9,-19 34,-61 55,-92 22,-31 39,-61 39,-65 1,-4 14,-24 30,-43 18,-20 30,-46 30,-62 0,-28 0,-28 -30,-13 -17,9 -35,13 -40,10 -6,-3 -10,-1 -10,4 0,12 -29,14 -54,5 -9,-3 -13,-10 -10,-15 8,-13 -3,-11 -34,5 -23,12 -130,15 -610,17 -348,1 -586,-1 -591,-7 -4,-5 -92,-98 -194,-206 l -187,-197 v -445 -446 l 63,-62 c 121,-122 211,-166 313,-153 41,5 58,13 85,41 27,28 29,34 15,34 -14,0 -6,14 33,54 28,30 51,61 51,68 1,28 71,88 123,106 47,16 84,17 407,11 199,-3 366,-10 379,-15 23,-10 23,-11 -15,-30 -34,-17 -65,-19 -264,-22 -222,-2 -366,-14 -383,-31 -5,-5 48,-10 124,-10 73,-1 137,-5 142,-8 5,-3 94,-8 198,-12 177,-6 190,-7 211,-28 42,-42 18,-48 -220,-50 -688,-7 -740,-12 -768,-64 -13,-27 -13,-30 3,-37 10,-4 164,-6 343,-5 305,1 323,0 300,-15 -53,-35 -106,-90 -172,-179 -81,-109 -115,-139 -171,-154 -105,-28 -177,-85 -197,-157 -8,-30 -7,-39 5,-48 12,-9 9,-16 -20,-42 -19,-16 -35,-38 -35,-48 0,-14 11,-7 45,26 25,24 44,49 43,55 -1,5 7,29 17,53 17,42 71,82 110,82 18,0 20,-21 3,-38 -9,-9 -8,-12 4,-12 29,0 151,103 180,153 23,40 25,46 9,37 -27,-14 -41,-12 -17,2 11,6 30,12 42,14 27,3 105,61 169,128 28,29 76,67 107,84 l 56,33 221,-1 c 122,-1 221,-4 221,-6 0,-3 -12,-16 -27,-30 -14,-13 -23,-27 -20,-31 4,-3 18,3 30,15 l 24,22 6,-982 c 4,-541 7,-1148 7,-1349 v -366 l 27,-27 c 15,-15 64,-58 109,-97 l 81,-69 h 456 455 l 94,84 c 51,46 133,122 182,168 l 88,85 -6,1084 c -7,1079 -11,1220 -42,1282 -8,15 -12,27 -8,27 12,0 33,-33 73,-115 25,-51 62,-104 103,-148 123,-132 192,-234 182,-272 -4,-16 1,-27 17,-39 13,-9 27,-12 32,-7 9,9 -1,61 -13,61 -4,0 -25,35 -46,78 -21,42 -50,95 -65,117 -15,22 -25,43 -23,47 3,5 -1,8 -9,8 -13,0 -46,31 -62,58 -6,11 -3,12 14,2 12,-6 25,-18 28,-26 3,-8 12,-14 20,-14 33,0 -16,79 -142,226 -72,85 -165,210 -165,223 0,10 509,22 915,20 165,0 318,2 340,7 52,9 174,104 329,255 l 119,117 -11,453 c -11,399 -14,456 -30,482 -9,16 -53,54 -97,85 l -80,54 -415,-6 c -405,-6 -494,-11 -470,-26 7,-4 -3,-14 -27,-24 -21,-10 -51,-24 -68,-31 -32,-15 -45,-11 -27,7 22,22 13,54 -25,89 -44,40 -49,40 -269,19 -78,-7 -149,-10 -158,-7 -17,7 -16,9 3,40 11,17 33,59 48,92 l 28,60 -5,727 -5,726 -30,44 c -48,67 -82,85 -178,92 -116,9 -855,12 -876,4 z m 855,-111 c 4,-4 -4,-20 -18,-34 -27,-26 -28,-27 -225,-34 -187,-6 -258,-16 -293,-39 -12,-8 -9,-10 11,-10 15,0 44,-6 65,-14 28,-9 54,-11 89,-5 60,9 245,11 298,3 l 37,-7 v -715 c 0,-669 -1,-716 -17,-728 -77,-59 -124,-85 -171,-94 -67,-12 -68,-11 -234,122 l -127,103 -6,620 c -5,639 -10,710 -46,710 -12,0 -15,-98 -19,-605 -3,-333 -9,-611 -13,-617 -11,-17 -28,-16 -77,3 l -41,17 7,46 c 4,25 11,54 16,64 5,10 9,267 8,623 l -1,605 375,-3 c 206,-2 378,-7 382,-11 z m -852,-1155 -6,-63 -19,38 c -39,74 -48,163 -61,610 l -12,432 45,48 44,48 8,-525 c 4,-289 5,-553 1,-588 z m 978,853 c 5,-126 7,-451 6,-722 l -3,-492 -40,-41 c -21,-22 -43,-40 -47,-40 -4,0 -8,338 -8,750 v 750 l 33,29 c 28,26 33,28 42,13 5,-9 13,-120 17,-247 z m -1129,-20 c 3,-75 2,-94 -3,-60 -6,37 -7,25 -4,-50 2,-55 5,-194 6,-310 l 2,-210 6,230 6,230 v -250 c 1,-137 -2,-304 -5,-370 l -6,-120 -8,75 c -15,153 -27,586 -22,743 9,239 19,273 28,92 z m -46,13 c -3,-7 -5,-2 -5,12 0,14 2,19 5,13 2,-7 2,-19 0,-25 z m -19,-23 c 2,-19 -7,-72 -18,-118 -24,-99 -27,-162 -11,-312 6,-60 11,-176 11,-257 0,-87 4,-149 10,-153 6,-3 10,-13 10,-21 0,-12 -5,-11 -26,5 -34,27 -44,26 -46,-1 -1,-13 -5,155 -8,372 -3,217 -2,411 2,430 4,20 20,47 38,63 17,15 32,27 33,27 2,0 4,-16 5,-35 z m 129,-827 c -3,-8 -6,-5 -6,6 -1,11 2,17 5,13 3,-3 4,-12 1,-19 z m 79,-183 c 10,-16 14,-34 9,-54 -5,-25 -10,-29 -38,-28 -30,2 -32,5 -35,42 -3,29 1,43 14,52 25,18 31,17 50,-12 z m -289,-47 c -3,-7 -5,-2 -5,12 0,14 2,19 5,13 2,-7 2,-19 0,-25 z m 123,-58 c 0,-5 4,-10 10,-10 11,0 40,-53 40,-74 0,-9 -6,-13 -14,-10 -10,4 -15,-9 -20,-50 -10,-73 -31,-92 -39,-34 -3,24 -2,45 4,46 5,2 9,27 8,55 0,38 -3,47 -9,32 -8,-19 -9,-19 -9,3 -1,13 -5,20 -11,17 -6,-4 -10,11 -10,39 0,24 -3,53 -6,63 -4,10 7,-1 25,-24 17,-24 31,-47 31,-53 z m 374,-105 c 3,-8 1,-15 -3,-15 -5,0 -11,7 -15,15 -3,8 -1,15 3,15 5,0 11,-7 15,-15 z m -201,-52 c -7,-2 -19,-2 -25,0 -7,3 -2,5 12,5 14,0 19,-2 13,-5 z m 109,-132 c 111,-68 252,-150 271,-157 16,-6 18,-14 12,-68 -8,-69 -19,-86 -84,-121 l -45,-26 -200,65 c -111,36 -241,74 -289,86 -48,11 -99,27 -113,36 l -24,17 50,23 c 28,13 71,37 96,55 40,27 238,127 256,128 4,1 35,-16 70,-38 z m -399,7 c 27,-14 20,-24 -30,-45 -64,-27 -103,-36 -103,-23 0,5 -5,10 -11,10 -6,0 -9,-7 -5,-15 10,-27 -9,-16 -59,35 l -49,50 119,-2 c 66,-1 128,-5 138,-10 z m -327,-53 47,-45 -497,-2 c -273,-2 -506,0 -517,4 -11,5 -39,26 -62,48 l -42,40 h 512 513 z m 1374,8 c -32,-37 -232,-194 -238,-188 -2,2 15,39 38,83 33,62 50,84 82,102 47,26 83,38 122,39 l 28,1 z m 580,19 c 0,-22 -123,-112 -152,-112 -10,0 -18,-5 -18,-11 0,-6 -9,-9 -19,-6 -15,4 -23,-4 -35,-34 -18,-45 -12,-69 18,-69 21,-1 21,-1 1,-16 -11,-8 -27,-21 -37,-28 -9,-8 -18,-12 -21,-10 -3,3 -34,-15 -70,-41 -36,-25 -71,-45 -80,-45 -8,0 -26,-9 -40,-20 -14,-11 -27,-20 -30,-20 -3,0 -8,33 -12,73 -8,88 -1,107 75,185 38,40 75,65 148,99 53,25 111,49 127,53 41,11 145,12 145,2 z m -2981,-40 c 41,-43 67,-135 76,-267 3,-57 1,-82 -10,-99 -18,-26 -20,-98 -7,-181 6,-36 6,-70 1,-84 -6,-14 -6,-28 0,-35 9,-11 21,-76 14,-76 -3,0 -11,7 -19,15 -22,21 -34,19 -34,-7 0,-19 -2,-20 -10,-8 -5,8 -10,11 -10,7 0,-16 46,-69 72,-83 22,-11 170,-14 852,-14 454,-1 826,-4 826,-8 0,-4 -7,-18 -16,-30 -8,-12 -12,-22 -8,-22 10,0 -37,-50 -58,-61 -10,-5 -26,-5 -40,0 -13,5 -347,10 -743,12 -576,2 -728,0 -761,-10 -36,-12 -46,-11 -76,3 -19,9 -49,31 -66,49 l -30,32 5,448 c 3,246 8,447 11,447 3,0 17,-12 31,-28 z m 2581,22 c 0,-9 -32,-33 -44,-34 -5,0 -1,9 9,20 18,20 35,26 35,14 z m -2730,-457 v -434 l -130,-119 c -72,-65 -135,-120 -140,-122 -6,-2 -10,149 -10,400 v 403 l 138,152 c 75,83 138,152 140,152 1,1 2,-194 2,-432 z m 2670,414 c 0,-5 -20,-27 -44,-49 -25,-23 -52,-57 -62,-77 -12,-26 -21,-34 -34,-30 -10,3 -26,-6 -43,-25 -22,-25 -35,-30 -70,-30 l -42,1 30,25 c 17,14 50,37 75,51 25,15 52,34 60,44 25,28 111,99 121,99 5,0 9,-4 9,-9 z m 1604,-20 c 70,-48 71,-52 26,-96 -28,-27 -40,-48 -40,-67 0,-34 7,-35 52,-4 l 35,23 6,-180 c 4,-99 7,-247 7,-328 v -147 l -37,10 c -21,5 -45,17 -54,25 -15,13 -26,9 -103,-32 -87,-47 -126,-83 -126,-116 0,-50 3,-49 -229,-48 -119,0 -225,4 -236,9 -11,5 -14,9 -7,9 6,1 12,5 12,9 0,4 -33,5 -72,1 -110,-12 -326,-11 -333,1 -3,6 -2,10 3,10 6,0 14,17 19,38 l 9,37 174,-1 c 96,-1 267,-3 380,-5 247,-5 275,0 294,45 8,18 32,48 54,65 44,36 56,68 72,186 5,39 16,103 25,144 9,40 13,76 10,79 -18,19 -117,-186 -149,-308 -28,-108 -42,-124 -115,-134 -40,-5 -57,-2 -93,16 -50,26 -163,37 -197,19 -28,-16 -20,-27 26,-36 35,-7 36,-8 13,-15 -14,-3 -41,-2 -60,3 -19,5 -138,12 -265,15 l -229,7 -2,35 c -3,50 -3,52 -13,46 -4,-3 -23,6 -41,19 -39,28 -16,36 25,9 28,-18 55,-14 141,22 l 59,25 -87,-5 c -87,-4 -88,-4 -130,30 -24,19 -64,41 -90,50 -47,15 -98,49 -98,63 0,5 19,21 41,36 46,30 85,33 273,20 66,-5 102,-3 109,4 8,8 6,11 -6,11 -9,0 -56,11 -103,25 -93,27 -147,31 -190,15 -14,-6 -32,-7 -38,-2 -15,11 -136,51 -166,54 -24,3 -22,6 35,64 51,51 80,76 160,136 6,4 29,23 53,42 23,19 59,40 80,47 20,6 44,17 52,23 20,14 -20,-34 -45,-55 -11,-9 -28,-30 -37,-47 -18,-30 -18,-30 10,-40 15,-6 38,-14 52,-17 31,-7 156,28 181,51 10,9 35,22 56,30 32,11 34,13 13,14 -20,0 -22,2 -10,10 29,19 -84,11 -123,-9 -46,-24 -77,-32 -77,-20 0,5 5,9 10,9 6,0 30,18 53,40 24,22 54,44 68,49 14,6 199,10 447,10 l 423,1 z m -1159,-21 c -3,-5 -12,-10 -18,-10 -7,0 -6,4 3,10 19,12 23,12 15,0 z m -1835,-47 c 0,-34 18,-46 81,-55 45,-6 104,-27 203,-74 107,-51 471,-214 608,-272 25,-11 89,-92 111,-142 11,-25 23,-47 28,-50 4,-3 8,-122 10,-265 2,-211 -1,-275 -14,-340 -9,-44 -19,-96 -21,-115 -2,-19 -12,-68 -21,-108 -23,-97 -8,-116 29,-38 14,30 26,61 26,69 0,8 7,30 15,50 18,44 34,146 39,252 6,119 50,297 90,359 52,80 60,84 90,39 31,-44 35,-99 9,-106 -15,-4 -15,-6 5,-12 21,-7 24,-13 26,-60 1,-11 11,-24 22,-29 21,-9 22,-19 29,-209 7,-196 7,-199 -15,-219 l -22,-20 3,-1182 2,-1181 -84,-2 c -171,-5 -375,-23 -419,-36 l -45,-14 36,-7 c 47,-10 449,0 514,12 28,5 39,10 26,11 -20,1 -21,3 -11,16 7,8 18,15 25,15 7,0 15,20 19,47 3,25 6,546 6,1156 0,611 2,1113 6,1116 7,7 38,-31 67,-84 l 22,-40 3,-1130 c 1,-621 0,-1135 -2,-1141 -3,-7 -16,-9 -31,-6 -23,4 -25,6 -11,14 9,5 14,13 11,19 -9,13 -49,11 -63,-3 -8,-8 -43,-14 -90,-14 -42,-1 -98,-4 -125,-8 -70,-9 -511,-11 -525,-2 -7,4 -21,25 -32,46 -20,38 -20,61 -20,1060 0,561 -3,1020 -7,1020 -20,-1 -34,-21 -53,-74 -11,-33 -24,-64 -30,-71 -5,-6 -19,-54 -30,-106 -11,-52 -26,-118 -34,-146 -8,-29 -17,-76 -20,-105 l -5,-53 10,43 c 6,23 14,42 19,42 14,0 42,46 49,81 3,16 7,-344 8,-800 l 3,-829 -56,-47 -55,-47 6,633 c 9,1119 20,1511 39,1447 5,-16 12,-28 17,-28 5,0 10,-15 10,-32 1,-23 3,-27 7,-13 l 5,20 7,-20 c 5,-14 9,2 14,48 l 8,68 44,20 c 27,13 44,28 44,39 0,9 8,25 19,34 18,16 19,13 47,-86 l 28,-103 3,-926 c 3,-820 5,-928 19,-940 12,-10 18,-9 32,5 16,15 17,83 20,864 2,466 1,884 -3,928 -6,71 -9,83 -30,94 -21,11 -24,22 -30,109 -9,124 2,164 71,256 30,41 54,81 54,90 0,9 7,29 15,45 9,18 11,31 5,35 -12,7 -1,98 14,107 17,11 18,3 5,-46 -14,-57 -6,-69 16,-26 17,34 29,190 15,190 -5,0 -18,-13 -30,-30 -11,-16 -37,-48 -57,-70 -20,-22 -58,-72 -85,-112 -27,-40 -71,-98 -99,-128 l -51,-55 7,85 c 3,47 10,101 15,120 5,19 11,82 14,140 3,58 10,146 16,197 5,50 7,98 4,106 -3,9 -24,24 -47,34 -39,17 -92,18 -831,21 l -788,2 3,128 c 2,70 4,204 4,297 1,94 2,185 3,202 l 2,33 498,3 c 273,1 500,3 505,5 4,1 7,-6 7,-15 z m 1078,-245 c 20,-12 63,-32 96,-44 34,-13 55,-23 49,-23 -9,-1 -10,-8 -3,-27 6,-14 10,-40 10,-59 0,-19 4,-45 10,-59 12,-32 3,-38 -69,-43 l -56,-4 -56,68 c -31,37 -68,92 -83,121 l -27,54 22,19 c 29,25 63,24 107,-3 z m 502,-58 c 0,-5 -6,-11 -12,-12 -29,-3 -34,-4 -53,-14 -11,-6 -38,-12 -60,-13 l -40,-2 39,22 c 24,12 51,19 68,17 16,-3 31,-1 34,4 7,11 24,10 24,-2 z m -22,-212 c 85,-21 240,-226 211,-279 -9,-18 -17,-20 -54,-15 -25,4 -53,2 -68,-5 -24,-11 -33,-7 -129,66 -57,44 -119,96 -139,117 -20,21 -41,38 -47,38 -6,0 -9,7 -6,15 4,8 1,15 -5,15 -6,0 -11,8 -11,19 0,15 12,20 73,27 106,14 128,14 175,2 z m -348,-47 c 0,-12 -26,-32 -33,-25 -9,10 4,34 19,34 8,0 14,-4 14,-9 z m 254,-253 c 50,-47 51,-48 23,-48 -16,0 -42,-8 -58,-17 -15,-9 -32,-14 -36,-10 -4,4 -8,39 -9,78 -3,80 -9,80 80,-3 z m 1618,46 c 5,-3 8,-13 8,-22 0,-23 -121,-141 -127,-124 -3,7 -23,12 -52,12 -43,0 -71,12 -71,32 0,4 25,24 57,45 31,21 68,46 82,56 24,16 77,17 103,1 z m -4276,-89 27,-25 h -24 c -13,0 -31,4 -39,10 -9,6 -19,5 -28,-2 -11,-9 -11,-7 -1,15 15,34 30,34 65,2 z m -82,-50 c -7,-17 23,-26 96,-28 27,-1 50,-5 50,-8 0,-4 -16,-19 -36,-34 -38,-29 -47,-29 -147,-2 l -48,13 37,37 c 39,39 57,47 48,22 z m 1753,-39 c -7,-18 -34,-52 -62,-76 -65,-56 -135,-128 -135,-140 0,-15 -52,-70 -61,-64 -5,3 -12,-2 -15,-10 -9,-24 -24,-19 -24,8 0,13 8,30 17,37 9,8 40,46 69,84 28,39 65,82 80,96 42,38 124,99 134,99 5,0 4,-15 -3,-34 z m -269,-3 c -32,-2 -86,-2 -120,0 -35,2 -9,3 57,3 66,0 94,-1 63,-3 z m 2676,1 c 19,-7 11,-24 -10,-24 -8,0 -13,4 -9,9 3,5 -3,12 -12,14 -16,4 -16,5 -1,6 9,0 23,-2 32,-5 z m -1194,-14 c -19,-13 -30,-13 -30,0 0,6 10,10 23,10 18,0 19,-2 7,-10 z m 521,-20 c 10,-6 19,-16 19,-22 0,-8 -57,-9 -200,-6 -111,3 -203,8 -206,11 -3,3 -3,10 1,16 8,15 359,15 386,1 z m 604,-19 40,-18 -107,-8 c -213,-15 -482,7 -436,36 7,5 114,8 238,8 194,0 231,-3 265,-18 z m -4097,-24 c 39,-19 42,-23 26,-34 -9,-7 -42,-17 -73,-23 -31,-6 -64,-15 -74,-21 -13,-7 -24,-5 -42,10 l -25,19 47,41 c 53,45 65,46 141,8 z m 3357,-39 c 188,-2 212,-6 279,-45 38,-23 39,-24 11,-19 -60,12 -75,13 -75,5 0,-5 -107,-9 -239,-9 -205,0 -240,2 -252,16 -10,13 -10,17 1,24 20,12 14,15 -50,28 -51,10 -48,11 45,7 55,-3 181,-6 280,-7 z m 725,-3 c 0,-3 -19,-18 -42,-35 -40,-30 -43,-30 -168,-30 -129,0 -184,10 -194,36 -3,8 -13,15 -23,16 -30,3 174,14 305,16 67,1 122,0 122,-3 z m -1053,-54 c 13,-7 -24,-10 -129,-11 -112,0 -148,3 -148,13 0,15 250,14 277,-2 z m -3062,-11 c -3,-5 -14,-10 -23,-9 -14,0 -13,2 3,9 27,11 27,11 20,0 z m 1243,-27 c -26,-2 -71,-2 -100,0 -29,2 -8,3 47,3 55,0 79,-1 53,-3 z m 569,-65 c -2,-13 -4,-3 -4,22 0,25 2,35 4,23 2,-13 2,-33 0,-45 z m -120,-45 c -2,-16 -4,-3 -4,27 0,30 2,43 4,28 2,-16 2,-40 0,-55 z m -772,27 c -4,-6 -29,-24 -57,-40 -28,-15 -77,-59 -109,-96 -32,-36 -74,-78 -94,-91 -36,-24 -36,-24 -25,-3 20,37 161,197 184,209 19,9 80,28 99,30 5,1 5,-4 2,-9 z m 763,-182 44,-97 -20,-26 c -11,-14 -28,-48 -37,-75 -9,-27 -23,-54 -31,-60 -12,-11 -14,13 -14,178 0,105 -2,199 -5,209 -6,21 1,5 63,-129 z m 119,80 c -2,-13 -4,-5 -4,17 -1,22 1,32 4,23 2,-10 2,-28 0,-40 z m -257,-314 c 0,-67 -5,-100 -17,-125 l -18,-34 -3,150 c -2,100 1,163 9,190 l 13,40 8,-65 c 4,-36 8,-106 8,-156 z m 340,176 c 0,-42 -14,-54 -25,-20 -5,17 9,60 20,60 3,0 5,-18 5,-40 z m -240,-432 c -3,-70 -9,-130 -12,-133 -3,-3 -8,47 -12,111 -7,102 -6,118 10,135 9,10 18,18 19,17 1,-2 -1,-60 -5,-130 z m -91,-118 c -6,-41 -16,-82 -21,-90 -7,-12 -8,-11 -5,5 2,11 -2,31 -8,45 -7,14 -15,53 -19,88 -6,57 -5,62 12,62 11,0 26,8 33,17 13,15 14,13 17,-18 2,-19 -2,-68 -9,-109 z m 28,-217 c -3,-10 -5,-4 -5,12 0,17 2,24 5,18 2,-7 2,-21 0,-30 z m 4,-187 c 1,-34 0,-137 0,-231 -2,-155 22,-591 32,-601 2,-2 7,143 12,323 14,601 23,506 19,-196 -4,-776 4,-699 -77,-764 l -39,-30 4,769 c 2,423 6,774 10,780 4,6 14,11 23,11 12,0 15,-13 16,-61 z m 1016,-1312 c -3,-3 -12,-4 -19,-1 -8,3 -5,6 6,6 11,1 17,-2 13,-5 z m -125,-11 c -51,-2 -132,-2 -180,0 -48,1 -6,3 93,3 99,0 138,-2 87,-3 z m -632,-61 c 0,-5 12,-12 27,-18 27,-9 27,-9 -62,-88 -129,-113 -128,-112 -166,-89 l -31,20 87,79 c 100,91 145,121 145,96 z m 820,-139 c -158,-149 -94,-133 -533,-133 h -379 l 49,38 c 36,29 138,119 186,164 1,1 160,5 352,8 193,3 366,7 384,8 35,2 34,1 -59,-85 z"
       id="path1" />
    <path
       d="m 11926,11960 c -85,-11 -116,-18 -116,-28 0,-11 22,-12 430,-26 201,-6 373,-8 383,-4 24,12 21,44 -5,53 -35,10 -614,15 -692,5 z"
       id="path2" />
    <path
       d="m 11375,11600 c -3,-5 1,-10 9,-10 9,0 16,5 16,10 0,6 -4,10 -9,10 -6,0 -13,-4 -16,-10 z"
       id="path3" />
    <path
       d="m 10616,11054 c -4,-9 -4,-19 -1,-22 2,-3 7,3 11,12 4,9 4,19 1,22 -2,3 -7,-3 -11,-12 z"
       id="path4" />
    <path
       d="m 10638,10434 c -5,-4 -8,-21 -7,-38 0,-30 0,-30 10,-7 11,27 8,57 -3,45 z"
       id="path5" />
    <path
       d="m 10690,10301 c -5,-11 -10,-36 -10,-56 0,-46 17,-43 45,7 16,30 17,39 6,52 -18,21 -28,20 -41,-3 z"
       id="path6" />
    <path
       d="m 10141,10174 c 0,-11 3,-14 6,-6 3,7 2,16 -1,19 -3,4 -6,-2 -5,-13 z"
       id="path7" />
    <path
       d="m 11008,8203 c 6,-2 18,-2 25,0 6,3 1,5 -13,5 -14,0 -19,-2 -12,-5 z"
       id="path8" />
    <path
       d="m 8981,13878 c -16,-45 12,-99 112,-213 28,-33 60,-71 69,-85 16,-25 16,-25 7,15 -5,22 -9,58 -9,80 0,44 -39,137 -73,173 -23,25 -68,52 -87,52 -6,0 -14,-10 -19,-22 z m 82,-70 c 19,-15 34,-68 19,-68 -10,0 -52,60 -52,74 0,10 15,7 33,-6 z"
       id="path9" />
    <path
       d="m 9194,13436 c -11,-30 17,-85 68,-131 107,-96 115,-80 25,49 -64,92 -83,109 -93,82 z"
       id="path10" />
    <path
       d="m 11547,13384 c -8,-8 1,-24 14,-24 5,0 9,7 9,15 0,15 -12,20 -23,9 z"
       id="path11" />
    <path
       d="m 9510,13281 c -14,-28 -13,-39 9,-46 23,-7 64,-83 87,-160 18,-65 68,-135 97,-135 22,0 22,-1 -13,82 -16,38 -30,76 -30,83 0,19 -80,169 -98,183 -23,17 -40,15 -52,-7 z"
       id="path12" />
    <path
       d="m 11447,13263 c -12,-11 -8,-23 8,-23 8,0 15,7 15,15 0,16 -12,20 -23,8 z"
       id="path13" />
    <path
       d="m 8504,13225 c -4,-10 -1,-21 7,-26 20,-12 34,-5 34,17 0,24 -33,31 -41,9 z"
       id="path14" />
    <path
       d="m 9463,13163 c 13,-78 109,-185 139,-155 8,8 2,21 -24,50 -19,21 -48,62 -63,90 -34,63 -61,70 -52,15 z"
       id="path15" />
    <path
       d="m 11625,13163 c -3,-16 -19,-68 -35,-118 -25,-75 -54,-242 -45,-253 6,-6 81,30 134,65 103,66 141,113 141,172 0,23 -9,37 -37,58 -20,15 -55,45 -78,66 -51,44 -73,47 -80,10 z m 103,-123 c -2,-15 -15,-31 -36,-43 -41,-24 -50,-16 -33,26 8,18 14,41 15,53 1,19 2,19 29,5 20,-12 27,-23 25,-41 z m -28,-95 c -13,-14 -26,-23 -28,-20 -3,3 -11,0 -19,-6 -14,-13 -17,-2 -7,25 9,22 35,21 27,-1 -5,-14 -1,-13 18,5 32,30 38,28 9,-3 z"
       id="path16" />
    <path
       d="m 9073,13104 c -8,-21 13,-42 28,-27 13,13 5,43 -11,43 -6,0 -13,-7 -17,-16 z"
       id="path17" />
    <path
       d="m 12206,13070 c -16,-10 -33,-26 -38,-34 -7,-13 -3,-15 24,-10 l 33,6 -30,-20 c -46,-31 -105,-87 -105,-101 0,-17 30,-6 101,35 90,53 121,82 117,113 -3,22 -8,26 -38,28 -20,1 -47,-6 -64,-17 z"
       id="path18" />
    <path
       d="m 8675,13010 c -25,-10 -70,-92 -62,-114 9,-24 64,-54 142,-77 39,-12 97,-30 130,-41 33,-11 71,-22 85,-25 l 25,-6 -27,22 c -14,11 -37,40 -51,63 -24,41 -78,92 -157,149 -45,33 -60,38 -85,29 z m 42,-95 28,-24 -32,-1 c -29,0 -53,20 -53,44 0,14 31,4 57,-19 z"
       id="path19" />
    <path
       d="m 9295,12828 c 13,-44 35,-67 105,-112 39,-25 73,-46 75,-46 10,0 -58,106 -76,118 -11,7 -19,19 -19,26 0,15 -42,36 -71,36 -16,0 -19,-4 -14,-22 z"
       id="path20" />
    <path
       d="m 11840,12694 c -36,-20 -110,-66 -165,-103 -108,-71 -161,-102 -172,-100 -21,3 -33,-2 -33,-15 0,-8 -19,-31 -42,-52 -54,-46 -46,-42 130,74 78,51 193,125 255,163 119,74 135,93 27,33 z"
       id="path21" />
    <path
       d="m 9238,12612 c -10,-2 -18,-9 -18,-15 1,-18 79,-73 145,-103 33,-14 94,-50 137,-81 43,-30 78,-50 78,-45 0,18 -122,123 -209,180 -97,64 -109,70 -133,64 z"
       id="path22" />
    <path
       d="m 11500,12590 c -11,-11 -20,-27 -20,-35 0,-23 56,-19 82,7 20,20 20,22 3,35 -26,18 -42,16 -65,-7 z"
       id="path23" />
    <path
       d="m 12000,12515 c -14,-8 -39,-14 -57,-15 -27,0 -41,-11 -88,-67 -64,-74 -80,-104 -72,-127 9,-22 21,-20 58,11 23,20 41,26 65,24 38,-3 99,26 135,66 30,32 51,86 43,108 -8,19 -51,19 -84,0 z m 0,-61 c 0,-2 -9,-4 -21,-4 -11,0 -18,4 -14,10 5,8 35,3 35,-6 z m -35,-21 c 15,-5 15,-8 -5,-18 -13,-7 -32,-10 -42,-7 -18,4 -17,6 4,17 13,7 24,13 25,14 1,1 9,-2 18,-6 z"
       id="path24" />
    <path
       d="m 11725,12150 c -3,-5 -2,-10 4,-10 5,0 13,5 16,10 3,6 2,10 -4,10 -5,0 -13,-4 -16,-10 z"
       id="path25" />
    <path
       d="m 11685,12130 c -3,-6 1,-7 9,-4 18,7 21,14 7,14 -6,0 -13,-4 -16,-10 z"
       id="path26" />
    <path
       d="m 8673,10890 c -13,-5 -23,-11 -23,-13 0,-2 81,-3 179,-3 99,1 177,3 175,5 -14,14 -304,23 -331,11 z"
       id="path27" />
    <path
       d="m 7275,10752 c -44,-21 -72,-56 -81,-102 -5,-24 -1,-35 24,-60 26,-25 38,-30 80,-30 60,0 107,29 139,85 43,75 22,109 -72,120 -38,4 -60,1 -90,-13 z m 112,-68 c 2,-6 -8,-23 -22,-38 -20,-22 -32,-27 -63,-24 -29,2 -38,8 -40,25 -4,30 34,54 82,51 22,-2 41,-8 43,-14 z"
       id="path28" />
    <path
       d="m 12226,10592 c 23,-93 113,-178 214,-201 58,-13 74,-1 65,48 -10,59 -24,85 -61,111 -19,14 -42,31 -50,39 -9,8 -44,16 -82,18 -37,2 -73,5 -80,8 -9,3 -10,-3 -6,-23 z m 156,-63 c 9,-10 19,-19 22,-19 8,0 56,-47 56,-55 0,-9 -29,-2 -85,18 -37,14 -51,33 -54,75 -1,18 39,6 61,-19 z"
       id="path29" />
    <path
       d="m 8062,10584 c -26,-18 -29,-52 -6,-61 24,-9 86,10 98,30 9,15 7,21 -8,33 -26,18 -56,18 -84,-2 z"
       id="path30" />
    <path
       d="m 9566,10448 c -130,-136 -173,-196 -107,-149 54,39 269,291 247,291 -2,0 -65,-64 -140,-142 z"
       id="path31" />
    <path
       d="m 11673,10555 c 15,-14 33,-38 41,-54 18,-35 57,-61 90,-61 36,0 39,14 16,64 -27,60 -52,76 -120,76 h -55 z m 117,-67 c 0,-5 -4,-8 -10,-8 -5,0 -10,10 -10,23 0,18 2,19 10,7 5,-8 10,-18 10,-22 z"
       id="path32" />
    <path
       d="m 9256,10290 c -52,-63 5,-133 83,-100 42,17 54,50 33,91 -14,28 -23,35 -53,37 -30,3 -41,-2 -63,-28 z m 84,-29 c 0,-23 -14,-41 -31,-41 -19,0 -27,29 -12,43 10,10 43,8 43,-2 z"
       id="path33" />
    <path
       d="m 11996,10269 c -26,-37 5,-83 66,-100 74,-19 86,24 25,89 -36,37 -69,41 -91,11 z m 82,-46 c 5,-18 -10,-16 -34,2 -18,15 -18,15 5,13 14,-2 26,-9 29,-15 z"
       id="path34" />
    <path
       d="m 7702,10258 c 2,-15 10,-23 23,-23 30,0 27,39 -3,43 -20,3 -23,0 -20,-20 z"
       id="path35" />
    <path
       d="m 9610,9955 c -87,-161 -120,-229 -119,-245 0,-10 3,-9 10,5 8,17 9,17 4,-5 -13,-56 -36,-219 -40,-280 -12,-182 -12,-250 0,-250 17,0 25,46 25,149 1,128 14,197 58,302 40,95 126,391 119,412 -2,6 -27,-34 -57,-88 z"
       id="path36" />
    <path
       d="m 11818,9913 c -1,-10 -3,-34 -4,-53 -1,-19 -6,-56 -9,-83 -7,-43 -5,-52 27,-100 19,-28 48,-81 66,-117 41,-85 44,-89 132,-142 206,-124 255,-143 295,-114 19,13 18,16 -16,82 -138,271 -162,308 -240,387 -124,123 -246,191 -251,140 z m 90,-191 c 30,-80 47,-156 32,-147 -12,7 -51,90 -62,133 -33,124 -15,132 30,14 z m 253,-181 c 23,-42 58,-100 77,-129 19,-29 32,-55 29,-58 -8,-8 -174,94 -209,129 -10,10 -28,56 -39,104 -11,47 -29,109 -40,137 l -20,51 79,-79 c 52,-50 95,-105 123,-155 z"
       id="path38" />
    <path
       d="m 7350,9765 c 0,-8 7,-15 15,-15 8,0 15,7 15,15 0,8 -7,15 -15,15 -8,0 -15,-7 -15,-15 z"
       id="path39" />
    <path
       d="m 8844,9684 c -71,-42 -110,-71 -186,-137 l -58,-49 v -56 c 0,-72 29,-139 63,-147 35,-9 90,17 120,56 46,62 151,326 141,354 -8,21 -12,20 -80,-21 z m -48,-141 c -13,-24 -15,-25 -16,-7 0,11 5,25 12,32 19,19 21,6 4,-25 z m -104,-63 c -28,-41 -46,-52 -35,-22 5,13 50,60 60,62 2,0 -10,-18 -25,-40 z m 74,10 c -3,-16 -9,-43 -12,-59 -5,-31 -45,-81 -64,-81 -25,0 -8,60 32,114 23,31 43,56 45,56 3,0 2,-13 -1,-30 z"
       id="path40" />
    <path
       d="m 9434,9592 c -52,-60 -108,-147 -146,-228 -32,-68 -40,-153 -19,-204 l 10,-25 v 25 c 3,71 52,176 117,245 27,30 40,55 50,100 8,33 18,77 23,98 5,20 8,37 7,37 0,-1 -19,-22 -42,-48 z"
       id="path41" />
    <path
       d="m 11554,9251 c 3,-5 13,-41 21,-81 8,-39 38,-123 66,-186 28,-64 48,-118 45,-121 -3,-4 -6,0 -6,7 0,7 -3,11 -6,7 -6,-6 66,-247 92,-305 7,-18 25,-37 38,-44 14,-6 40,-34 59,-62 52,-78 117,-146 138,-146 18,0 19,8 19,116 v 116 l -88,86 c -82,80 -92,95 -132,187 -97,227 -213,435 -241,435 -6,0 -8,-4 -5,-9 z m 269,-539 c 38,-40 67,-75 65,-78 -9,-9 -63,17 -91,44 -29,27 -68,95 -82,142 -7,24 -6,23 16,-5 12,-16 54,-63 92,-103 z m 42,-142 c 4,-6 10,-8 15,-5 18,11 57,-25 69,-63 24,-71 10,-77 -39,-16 -69,87 -73,94 -62,94 6,0 14,-5 17,-10 z"
       id="path42" />
    <path
       d="m 8650,9175 c 0,-8 7,-15 15,-15 8,0 15,7 15,15 0,8 -7,15 -15,15 -8,0 -15,-7 -15,-15 z"
       id="path43" />
    <path
       d="m 8380,9115 c 0,-9 5,-15 11,-13 6,2 11,8 11,13 0,5 -5,11 -11,13 -6,2 -11,-4 -11,-13 z"
       id="path44" />
    <path
       d="m 9252,9037 c -20,-46 -25,-77 -13,-77 17,0 32,39 29,73 l -4,32 z"
       id="path45" />
    <path
       d="m 12350,8835 c -10,-12 -10,-21 -1,-41 9,-20 17,-25 43,-22 38,4 58,30 42,56 -15,23 -67,28 -84,7 z"
       id="path46" />
    <path
       d="m 9084,8666 c -51,-51 -43,-118 18,-157 69,-43 154,-2 165,79 5,37 2,45 -30,77 -29,29 -42,35 -77,35 -34,0 -48,-6 -76,-34 z m 110,-45 c 33,-36 -4,-82 -53,-66 -44,14 -27,85 19,85 9,0 25,-9 34,-19 z"
       id="path47" />
    <path
       d="m 7955,8441 c -7,-12 12,-24 25,-16 11,7 4,25 -10,25 -5,0 -11,-4 -15,-9 z"
       id="path48" />
  </g>
</svg>
